<svg width="24" height="24" viewBox="0 0 24 24" fill="none" xmlns="http://www.w3.org/2000/svg">
<path fill-rule="evenodd" clip-rule="evenodd" d="M12 1.75C11.3096 1.75 10.75 2.30964 10.75 3V10.75H3C2.30964 10.75 1.75 11.3096 1.75 12C1.75 12.6904 2.30964 13.25 3 13.25H10.75V21C10.75 21.6904 11.3096 22.25 12 22.25C12.6904 22.25 13.25 21.6904 13.25 21V13.25H21C21.6904 13.25 22.25 12.6904 22.25 12C22.25 11.3096 21.6904 10.75 21 10.75H13.25V3C13.25 2.30964 12.6904 1.75 12 1.75Z" fill="#505361"/>
</svg>
