<svg width="41" height="40" viewBox="0 0 41 40" fill="none" xmlns="http://www.w3.org/2000/svg">
<rect x="1.5" y="1" width="38" height="38" rx="19" fill="#8976BF"/>
<path fill-rule="evenodd" clip-rule="evenodd" d="M20.5 9.75C19.8096 9.75 19.25 10.3096 19.25 11V18.75H11.5C10.8096 18.75 10.25 19.3096 10.25 20C10.25 20.6904 10.8096 21.25 11.5 21.25H19.25V29C19.25 29.6904 19.8096 30.25 20.5 30.25C21.1904 30.25 21.75 29.6904 21.75 29V21.25H29.5C30.1904 21.25 30.75 20.6904 30.75 20C30.75 19.3096 30.1904 18.75 29.5 18.75H21.75V11C21.75 10.3096 21.1904 9.75 20.5 9.75Z" fill="white"/>
<rect x="1.5" y="1" width="38" height="38" rx="19" stroke="#604B9C" stroke-width="2"/>
</svg>
