<svg width="24" height="25" viewBox="0 0 24 25" fill="none" xmlns="http://www.w3.org/2000/svg">
<path d="M12 3.5C10.22 3.5 8.47991 4.02784 6.99987 5.01677C5.51983 6.00571 4.36628 7.41131 3.68509 9.05585C3.0039 10.7004 2.82567 12.51 3.17294 14.2558C3.5202 16.0016 4.37737 17.6053 5.63604 18.864C6.89471 20.1226 8.49836 20.9798 10.2442 21.3271C11.99 21.6743 13.7996 21.4961 15.4442 20.8149C17.0887 20.1337 18.4943 18.9802 19.4832 17.5001C20.4722 16.0201 21 14.28 21 12.5C20.9972 10.1139 20.0481 7.82631 18.3609 6.13908C16.6737 4.45185 14.3861 3.50276 12 3.5ZM15.2587 14.7797C15.3231 14.844 15.3742 14.9203 15.4091 15.0043C15.444 15.0883 15.4619 15.1784 15.462 15.2694C15.462 15.3603 15.4442 15.4504 15.4094 15.5345C15.3746 15.6185 15.3236 15.6949 15.2592 15.7592C15.1949 15.8236 15.1185 15.8746 15.0345 15.9094C14.9504 15.9442 14.8604 15.962 14.7694 15.962C14.6784 15.9619 14.5884 15.944 14.5043 15.9091C14.4203 15.8742 14.344 15.8231 14.2797 15.7587L12 13.479L9.72025 15.7587C9.59039 15.8883 9.41439 15.961 9.23092 15.9609C9.04746 15.9608 8.87154 15.8879 8.74181 15.7582C8.61208 15.6285 8.53916 15.4525 8.53906 15.2691C8.53896 15.0856 8.6117 14.9096 8.74129 14.7797L11.021 12.5L8.74129 10.2203C8.6117 10.0904 8.53896 9.91438 8.53906 9.73092C8.53916 9.54746 8.61208 9.37153 8.74181 9.24181C8.87154 9.11208 9.04746 9.03915 9.23092 9.03906C9.41439 9.03896 9.59039 9.11169 9.72025 9.24128L12 11.521L14.2797 9.24128C14.4096 9.11169 14.5856 9.03896 14.7691 9.03906C14.9525 9.03915 15.1285 9.11208 15.2582 9.24181C15.3879 9.37153 15.4608 9.54746 15.4609 9.73092C15.461 9.91438 15.3883 10.0904 15.2587 10.2203L12.979 12.5L15.2587 14.7797Z" fill="#7F8392"/>
</svg>
