<svg width="24" height="24" viewBox="0 0 24 24" fill="none" xmlns="http://www.w3.org/2000/svg">
<path d="M19.0794 3.38477H4.91943V20.6168H19.0794V3.38477Z" fill="#E77838"/>
<path d="M19.0795 20.6279L8.6875 22.0799V1.91992L19.0795 3.28792V20.6279Z" fill="#FFBF93"/>
<path fill-rule="evenodd" clip-rule="evenodd" d="M8.29179 1.46921C8.4217 1.35529 8.59441 1.3029 8.76571 1.32545L19.1577 2.69345C19.4562 2.73275 19.6794 2.98721 19.6794 3.28832V20.6283C19.6794 20.9276 19.4588 21.1811 19.1624 21.2225L8.77043 22.6745C8.59849 22.6986 8.42457 22.6469 8.29359 22.533C8.1626 22.419 8.0874 22.2539 8.0874 22.0803V1.92032C8.0874 1.74753 8.16189 1.58314 8.29179 1.46921ZM9.2874 2.60448V21.3907L18.4794 20.1063V3.81451L9.2874 2.60448Z" fill="#F3954B"/>
<path d="M11.5135 13.5475C12.0967 13.5475 12.5695 13.0748 12.5695 12.4915C12.5695 11.9083 12.0967 11.4355 11.5135 11.4355C10.9303 11.4355 10.4575 11.9083 10.4575 12.4915C10.4575 13.0748 10.9303 13.5475 11.5135 13.5475Z" fill="#F3954B"/>
</svg>
