<svg width="16" height="16" viewBox="0 0 16 16" fill="none" xmlns="http://www.w3.org/2000/svg">
<path fill-rule="evenodd" clip-rule="evenodd" d="M8 4C7.73059 4 7.5122 4.2184 7.5122 4.4878V7.5122H4.4878C4.2184 7.5122 4 7.73059 4 8C4 8.26941 4.2184 8.4878 4.4878 8.4878H7.5122V11.5122C7.5122 11.7816 7.73059 12 8 12C8.26941 12 8.4878 11.7816 8.4878 11.5122V8.4878H11.5122C11.7816 8.4878 12 8.26941 12 8C12 7.73059 11.7816 7.5122 11.5122 7.5122H8.4878V4.4878C8.4878 4.2184 8.26941 4 8 4Z" fill="#A3A7B5"/>
</svg>
