<svg width="25" height="24" viewBox="0 0 25 24" fill="none" xmlns="http://www.w3.org/2000/svg">
<path fill-rule="evenodd" clip-rule="evenodd" d="M12.0017 6C11.5976 6 11.27 6.3276 11.27 6.73171V11.2683H6.73342C6.32931 11.2683 6.00171 11.5959 6.00171 12C6.00171 12.4041 6.32931 12.7317 6.73342 12.7317H11.27V17.2683C11.27 17.6724 11.5976 18 12.0017 18C12.4058 18 12.7334 17.6724 12.7334 17.2683V12.7317H17.27C17.6741 12.7317 18.0017 12.4041 18.0017 12C18.0017 11.5959 17.6741 11.2683 17.27 11.2683H12.7334V6.73171C12.7334 6.3276 12.4058 6 12.0017 6Z" fill="#7F8392"/>
</svg>
