<svg width="14" height="14" viewBox="0 0 14 14" fill="none" xmlns="http://www.w3.org/2000/svg">
<path fill-rule="evenodd" clip-rule="evenodd" d="M7 1.02148C6.59729 1.02148 6.27083 1.34794 6.27083 1.75065V6.27148H1.74999C1.34729 6.27148 1.02083 6.59794 1.02083 7.00065C1.02083 7.40336 1.34729 7.72982 1.74999 7.72982H6.27083V12.2507C6.27083 12.6534 6.59729 12.9798 7 12.9798C7.4027 12.9798 7.72916 12.6534 7.72916 12.2507V7.72982H12.25C12.6527 7.72982 12.9792 7.40336 12.9792 7.00065C12.9792 6.59794 12.6527 6.27148 12.25 6.27148H7.72916V1.75065C7.72916 1.34794 7.4027 1.02148 7 1.02148Z" fill="#505361"/>
</svg>
