<svg width="16" height="16" viewBox="0 0 16 16" fill="none" xmlns="http://www.w3.org/2000/svg">
<path fill-rule="evenodd" clip-rule="evenodd" d="M4.90541 2.15327C4.70933 2.00722 4.4305 2.02345 4.25282 2.20195L1.5343 4.93306L1.48602 4.98925C1.34124 5.18533 1.35802 5.46307 1.53594 5.64017L1.59213 5.68845C1.7882 5.83323 2.06594 5.81645 2.24304 5.63853L4.10714 3.76545V11.6335L4.1117 11.7014C4.14481 11.9454 4.35401 12.1335 4.60714 12.1335C4.88328 12.1335 5.10714 11.9097 5.10714 11.6335V3.76558L6.97134 5.63853L7.02731 5.68708C7.22271 5.83276 7.50052 5.81727 7.67844 5.64017C7.87416 5.44536 7.87489 5.12878 7.68008 4.93306L4.96156 2.20195L4.95864 2.19942C4.94305 2.18401 4.92646 2.16962 4.90897 2.15636L4.90541 2.15327ZM11.7215 4.29609C11.6884 4.05203 11.4792 3.86393 11.2261 3.86393C10.9499 3.86393 10.7261 4.08779 10.7261 4.36393V12.2319L8.86186 10.3592L8.80589 10.3106C8.61048 10.1649 8.33267 10.1804 8.15475 10.3575C7.95904 10.5524 7.95831 10.8689 8.15312 11.0646L10.8716 13.7958L10.8769 13.8003C10.891 13.8141 10.906 13.8271 10.9217 13.8392L10.9278 13.8444C11.1239 13.9905 11.4027 13.9743 11.5804 13.7958L14.2989 11.0646L14.3472 11.0085C14.492 10.8124 14.4752 10.5346 14.2973 10.3575C14.1015 10.1627 13.785 10.1635 13.5902 10.3592L11.7261 12.2313V4.36393L11.7215 4.29609Z" fill="#505361"/>
</svg>
