<svg width="24" height="24" viewBox="0 0 24 24" fill="none" xmlns="http://www.w3.org/2000/svg">
<path fill-rule="evenodd" clip-rule="evenodd" d="M16.75 2V3.56C19.45 3.81 20.76 5.42 20.96 7.81C20.99 8.09 20.75 8.34 20.46 8.34H3.53999C3.25998 8.34 3.01998 8.1 3.03998 7.81C3.23998 5.42 4.54998 3.81 7.24999 3.56V2C7.24999 1.59 7.58999 1.25 7.99999 1.25C8.40999 1.25 8.74998 1.59 8.74998 2V3.5H15.25V2C15.25 1.59 15.59 1.25 16 1.25C16.41 1.25 16.75 1.59 16.75 2ZM4 9.84003H20C20.55 9.84003 21 10.29 21 10.84V17C21 20 19.5 22 16 22H8C4.5 22 3 20 3 17V10.84C3 10.29 3.45 9.84003 4 9.84003ZM9.16 18.2522C9.17667 18.2378 9.19333 18.2234 9.21 18.21C9.39 18.02 9.5 17.76 9.5 17.5C9.5 17.24 9.39 16.98 9.21 16.79L9.06 16.67C9 16.63 8.94 16.6 8.88 16.58C8.82 16.55 8.76 16.53 8.7 16.52C8.5 16.48 8.3 16.5 8.12 16.58C7.99 16.63 7.89 16.7 7.79 16.79C7.61 16.98 7.5 17.24 7.5 17.5C7.5 17.76 7.61 18.02 7.79 18.21C7.89 18.3 7.99 18.37 8.12 18.42C8.24 18.47 8.37 18.5 8.5 18.5C8.56212 18.5 8.61637 18.4922 8.67672 18.4834C8.68437 18.4823 8.69212 18.4812 8.7 18.48C8.76 18.47 8.82 18.45 8.88 18.42C8.94 18.4 9 18.37 9.06 18.33C9.09333 18.31 9.12667 18.2811 9.16 18.2522ZM8.5 15C8.76 15 9.02 14.89 9.21 14.71C9.39 14.52 9.5 14.26 9.5 14C9.5 13.74 9.39 13.48 9.21 13.29C9.12 13.2 9.01 13.13 8.88 13.08C8.51 12.92 8.07 13.01 7.79 13.29C7.61 13.48 7.5 13.74 7.5 14C7.5 14.26 7.61 14.52 7.79 14.71C7.98 14.89 8.24 15 8.5 15ZM12 18.5C12.26 18.5 12.52 18.39 12.71 18.21C12.89 18.02 13 17.76 13 17.5C13 17.24 12.89 16.98 12.71 16.79C12.34 16.42 11.66 16.42 11.29 16.79C11.11 16.98 11 17.24 11 17.5C11 17.76 11.11 18.02 11.29 18.21C11.48 18.39 11.74 18.5 12 18.5ZM12.56 14.83L12.71 14.71C12.89 14.52 13 14.26 13 14C13 13.74 12.89 13.48 12.71 13.29C12.43 13.01 11.99 12.92 11.62 13.08C11.49 13.13 11.38 13.2 11.29 13.29C11.11 13.48 11 13.74 11 14C11 14.26 11.11 14.52 11.29 14.71C11.48 14.89 11.74 15 12 15C12.0621 15 12.1164 14.9922 12.1767 14.9834C12.1844 14.9823 12.1921 14.9812 12.2 14.98C12.26 14.97 12.32 14.95 12.38 14.92C12.44 14.9 12.5 14.87 12.56 14.83ZM15.5 18.5C15.76 18.5 16.02 18.39 16.21 18.21C16.39 18.02 16.5 17.76 16.5 17.5C16.5 17.24 16.39 16.98 16.21 16.79C15.84 16.42 15.16 16.42 14.79 16.79C14.61 16.98 14.5 17.24 14.5 17.5C14.5 17.76 14.61 18.02 14.79 18.21C14.98 18.39 15.24 18.5 15.5 18.5ZM16.06 14.83L16.21 14.71C16.39 14.52 16.5 14.26 16.5 14C16.5 13.74 16.39 13.48 16.21 13.29L16.06 13.17C16 13.13 15.94 13.1 15.88 13.08C15.82 13.05 15.76 13.03 15.7 13.02C15.5 12.98 15.3 13 15.12 13.08C14.99 13.13 14.89 13.2 14.79 13.29C14.61 13.48 14.5 13.74 14.5 14C14.5 14.26 14.61 14.52 14.79 14.71C14.98 14.89 15.24 15 15.5 15C15.56 15 15.63 14.99 15.7 14.98C15.76 14.97 15.82 14.95 15.88 14.92C15.94 14.9 16 14.87 16.06 14.83Z" fill="#8976BF"/>
</svg>
