<svg width="16" height="16" viewBox="0 0 16 16" fill="none" xmlns="http://www.w3.org/2000/svg">
<path fill-rule="evenodd" clip-rule="evenodd" d="M11.3973 0C10.1761 0 9.00483 0.485121 8.14125 1.34865L5.98 3.50993C5.80444 3.68575 5.70587 3.92409 5.70596 4.17256C5.70605 4.42102 5.8048 4.65929 5.98049 4.83498C6.15618 5.01068 6.39444 5.10942 6.6429 5.10951C6.89137 5.1096 7.12987 5.01086 7.30569 4.8353L9.46677 2.6742C9.97882 2.1625 10.6731 1.87511 11.397 1.87522C12.121 1.87534 12.8152 2.16297 13.3271 2.67488C13.839 3.18679 14.1267 3.88105 14.1268 4.60499C14.1269 5.32891 13.8394 6.0233 13.3277 6.53536L11.1666 8.69656C10.991 8.87238 10.8924 9.11072 10.8925 9.35919C10.8926 9.60765 10.9914 9.84592 11.1671 10.0216C11.3427 10.1973 11.581 10.296 11.8295 10.2961C12.0779 10.2962 12.3164 10.1975 12.4923 10.0219L14.6536 7.86056C15.5158 6.99638 16 5.82548 16 4.60474C16 3.384 15.5155 2.21283 14.6533 1.34865C13.7898 0.485121 12.6185 0 11.3973 0ZM6.00883 11.3183L11.1952 6.13183C11.2823 6.04485 11.3515 5.94141 11.3987 5.82774C11.4459 5.71399 11.4702 5.59206 11.4702 5.46892C11.4703 5.34577 11.4461 5.22383 11.399 5.11005C11.3519 4.99627 11.2828 4.89288 11.1957 4.80581C11.1086 4.71873 11.0053 4.64966 10.8915 4.60256C10.7777 4.55546 10.6558 4.53123 10.5326 4.53128C10.4095 4.53132 10.2875 4.55564 10.1738 4.60282C10.0601 4.65001 9.95672 4.71915 9.86971 4.80629L4.68314 9.99292C4.50758 10.1687 4.40901 10.4071 4.4091 10.6556C4.40919 10.904 4.50794 11.1423 4.68363 11.318C4.85932 11.4937 5.09758 11.5924 5.34604 11.5925C5.59451 11.5926 5.83301 11.4939 6.00883 11.3183ZM1.34863 8.14116C0.485115 9.00474 0 10.176 0 11.3972C0 12.6185 0.485115 13.7897 1.34863 14.6533C2.21281 15.5155 3.38396 16 4.60468 16C5.82541 16 6.99629 15.5158 7.86046 14.6536L10.0218 12.4922C10.1974 12.3164 10.2961 12.0779 10.296 11.8294C10.2959 11.581 10.1972 11.3427 10.0215 11.167C9.8458 10.9913 9.60754 10.8926 9.35907 10.8925C9.11061 10.8924 8.87227 10.9909 8.69645 11.1665L6.53528 13.3277C6.02323 13.8394 5.32884 14.1269 4.60494 14.1268C3.881 14.1266 3.18675 13.839 2.67485 13.3271C2.16295 12.8152 1.87531 12.1209 1.8752 11.397C1.87508 10.6731 2.16247 9.97875 2.67416 9.46669L4.83524 7.30558C5.0108 7.12976 5.10954 6.89125 5.10945 6.64279C5.10935 6.39432 5.01061 6.15605 4.83492 5.98036C4.65923 5.80467 4.42097 5.70592 4.1725 5.70583C3.92404 5.70574 3.68571 5.80431 3.50989 5.97988L1.34863 8.14116Z" fill="#A3A7B5"/>
</svg>
