<svg width="18" height="18" viewBox="0 0 18 18" fill="none" xmlns="http://www.w3.org/2000/svg">
<path d="M15.2114 4.94398L12.2114 7.08898C11.8139 7.37398 11.2439 7.20148 11.0714 6.74398L9.65389 2.96398C9.41389 2.31148 8.49139 2.31148 8.25139 2.96398L6.8264 6.73648C6.65389 7.20148 6.09139 7.37398 5.69389 7.08148L2.69389 4.93648C2.09389 4.51648 1.29889 5.10898 1.54639 5.80648L4.66639 14.544C4.77139 14.844 5.0564 15.039 5.3714 15.039H12.5189C12.8339 15.039 13.1189 14.8365 13.2239 14.544L16.3439 5.80648C16.5989 5.10898 15.8039 4.51648 15.2114 4.94398ZM10.8239 11.8665H7.07389C6.7664 11.8665 6.51139 11.6115 6.51139 11.304C6.51139 10.9965 6.7664 10.7415 7.07389 10.7415H10.8239C11.1314 10.7415 11.3864 10.9965 11.3864 11.304C11.3864 11.6115 11.1314 11.8665 10.8239 11.8665Z" fill="#505361"/>
</svg>
