<svg width="24" height="24" viewBox="0 0 24 24" fill="none" xmlns="http://www.w3.org/2000/svg">
<path fill-rule="evenodd" clip-rule="evenodd" d="M2 11.9995C2 6.48051 6.48 1.99951 12 1.99951C17.53 1.99951 22 6.48051 22 11.9995C22 17.5205 17.53 21.9995 12 21.9995C6.48 21.9995 2 17.5205 2 11.9995ZM11.12 8.20951C11.12 7.73051 11.52 7.32951 12 7.32951C12.48 7.32951 12.87 7.73051 12.87 8.20951V12.6295C12.87 13.1105 12.48 13.4995 12 13.4995C11.52 13.4995 11.12 13.1105 11.12 12.6295V8.20951ZM12.01 16.6805C11.52 16.6805 11.13 16.2805 11.13 15.8005C11.13 15.3205 11.52 14.9305 12 14.9305C12.49 14.9305 12.88 15.3205 12.88 15.8005C12.88 16.2805 12.49 16.6805 12.01 16.6805Z" fill="#C65151"/>
</svg>
