<svg width="24" height="24" viewBox="0 0 24 24" fill="none" xmlns="http://www.w3.org/2000/svg">
<path fill-rule="evenodd" clip-rule="evenodd" d="M11.5 4C13.7104 4 15.7098 4.89514 17.1588 6.34511C17.9165 7.10335 18.777 8.13128 19.4692 9H15.5C14.9477 9 14.5 9.44772 14.5 10C14.5 10.5523 14.9477 11 15.5 11H21.5C22.0523 11 22.5 10.5523 22.5 10V4C22.5 3.44772 22.0523 3 21.5 3C20.9477 3 20.5 3.44772 20.5 4V7.09444C19.8981 6.36248 19.2132 5.57146 18.5735 4.93138C16.7648 3.12139 14.2624 2 11.5 2C5.97715 2 1.5 6.47715 1.5 12C1.5 17.5228 5.97715 22 11.5 22C14.9793 22 18.0429 20.2223 19.8327 17.5304C20.1385 17.0705 20.0136 16.4497 19.5537 16.144C19.0938 15.8382 18.4731 15.9631 18.1673 16.423C16.7324 18.5811 14.2817 20 11.5 20C7.08172 20 3.5 16.4183 3.5 12C3.5 7.58172 7.08172 4 11.5 4Z" fill="#4C5A6F"/>
</svg>
