<svg width="30" height="30" viewBox="0 0 30 30" fill="none" xmlns="http://www.w3.org/2000/svg">
<rect x="0.75" y="0.75" width="28.5" height="28.5" rx="14.25" fill="white"/>
<path fill-rule="evenodd" clip-rule="evenodd" d="M12.0153 10.9841C11.7306 10.6993 11.2689 10.6993 10.9841 10.9841C10.6994 11.2688 10.6994 11.7305 10.9841 12.0153L14.1943 15.2255L10.9841 18.4358C10.6993 18.7205 10.6993 19.1822 10.9841 19.4669C11.2688 19.7517 11.7305 19.7517 12.0153 19.4669L15.2255 16.2567L18.4358 19.4669C18.7205 19.7516 19.1822 19.7516 19.467 19.4669C19.7517 19.1821 19.7517 18.7204 19.467 18.4357L16.2567 15.2255L19.4669 12.0153C19.7516 11.7306 19.7516 11.2689 19.4669 10.9841C19.1821 10.6994 18.7204 10.6994 18.4357 10.9841L15.2255 14.1943L12.0153 10.9841Z" fill="#505361"/>
<rect x="0.75" y="0.75" width="28.5" height="28.5" rx="14.25" stroke="#A3A7B5" stroke-width="1.5"/>
</svg>
