<svg width="20" height="20" viewBox="0 0 20 20" fill="none" xmlns="http://www.w3.org/2000/svg">
<path d="M10 2.5C8.51664 2.5 7.06659 2.93987 5.83323 3.76398C4.59986 4.58809 3.63856 5.75943 3.07091 7.12987C2.50325 8.50032 2.35472 10.0083 2.64411 11.4632C2.9335 12.918 3.64781 14.2544 4.6967 15.3033C5.7456 16.3522 7.08197 17.0665 8.53682 17.3559C9.99168 17.6453 11.4997 17.4967 12.8701 16.9291C14.2406 16.3614 15.4119 15.4001 16.236 14.1668C17.0601 12.9334 17.5 11.4834 17.5 10C17.4977 8.01158 16.7068 6.10526 15.3008 4.69924C13.8947 3.29321 11.9884 2.5023 10 2.5ZM9.99993 5.96154C10.1711 5.96154 10.3384 6.01229 10.4807 6.10738C10.623 6.20247 10.7339 6.33763 10.7994 6.49575C10.8649 6.65388 10.8821 6.82788 10.8487 6.99575C10.8153 7.16362 10.7329 7.31782 10.6118 7.43884C10.4908 7.55987 10.3366 7.64229 10.1688 7.67568C10.0009 7.70907 9.82689 7.69193 9.66876 7.62643C9.51063 7.56093 9.37548 7.45002 9.28039 7.3077C9.1853 7.16539 9.13455 6.99808 9.13455 6.82692C9.13455 6.71328 9.15693 6.60075 9.20042 6.49575C9.24391 6.39076 9.30765 6.29536 9.38801 6.215C9.46837 6.13464 9.56377 6.0709 9.66876 6.02741C9.77376 5.98392 9.88629 5.96154 9.99993 5.96154H9.99993ZM10.5769 14.0385H10C9.92423 14.0385 9.84919 14.0236 9.77917 13.9946C9.70916 13.9657 9.64554 13.9232 9.59196 13.8696C9.53838 13.816 9.49588 13.7524 9.46691 13.6824C9.43793 13.6124 9.42304 13.5373 9.42308 13.4615V10C9.27007 10 9.12333 9.93922 9.01513 9.83102C8.90694 9.72283 8.84616 9.57609 8.84616 9.42308C8.84616 9.27007 8.90694 9.12332 9.01513 9.01513C9.12333 8.90694 9.27007 8.84615 9.42308 8.84615H10C10.0758 8.84611 10.1508 8.861 10.2208 8.88998C10.2908 8.91896 10.3545 8.96145 10.408 9.01503C10.4616 9.06861 10.5041 9.13223 10.5331 9.20224C10.5621 9.27226 10.577 9.3473 10.5769 9.42308V12.8846C10.7299 12.8846 10.8767 12.9454 10.9849 13.0536C11.0931 13.1618 11.1538 13.3085 11.1538 13.4615C11.1538 13.6145 11.0931 13.7613 10.9849 13.8695C10.8767 13.9777 10.7299 14.0385 10.5769 14.0385Z" fill="#A8B3C6"/>
</svg>
