<svg width="24" height="24" viewBox="0 0 24 24" fill="none" xmlns="http://www.w3.org/2000/svg">
<path fill-rule="evenodd" clip-rule="evenodd" d="M6.19526 16.7657C5.93491 16.5216 5.93491 16.1259 6.19526 15.8818L10.3905 11.9487L6.19526 8.01567C5.93491 7.7716 5.93491 7.37587 6.19526 7.13179C6.45561 6.88771 6.87772 6.88771 7.13807 7.13179L11.8047 11.5068C12.0651 11.7509 12.0651 12.1466 11.8047 12.3907L7.13807 16.7657C6.87772 17.0097 6.45561 17.0097 6.19526 16.7657Z" fill="#4C5A6F"/>
<path fill-rule="evenodd" clip-rule="evenodd" d="M12.1953 16.7657C11.9349 16.5216 11.9349 16.1259 12.1953 15.8818L16.3905 11.9487L12.1953 8.01567C11.9349 7.7716 11.9349 7.37587 12.1953 7.13179C12.4556 6.88771 12.8777 6.88771 13.1381 7.13179L17.8047 11.5068C18.0651 11.7509 18.0651 12.1466 17.8047 12.3907L13.1381 16.7657C12.8777 17.0097 12.4556 17.0097 12.1953 16.7657Z" fill="#4C5A6F"/>
</svg>
