<svg width="24" height="24" viewBox="0 0 24 24" fill="none" xmlns="http://www.w3.org/2000/svg">
<path fill-rule="evenodd" clip-rule="evenodd" d="M17.8047 7.18306C18.0651 7.42714 18.0651 7.82286 17.8047 8.06694L13.6095 12L17.8047 15.9331C18.0651 16.1771 18.0651 16.5729 17.8047 16.8169C17.5444 17.061 17.1223 17.061 16.8619 16.8169L12.1953 12.4419C11.9349 12.1979 11.9349 11.8021 12.1953 11.5581L16.8619 7.18306C17.1223 6.93898 17.5444 6.93898 17.8047 7.18306Z" fill="#4C5A6F"/>
<path fill-rule="evenodd" clip-rule="evenodd" d="M11.8047 7.18306C12.0651 7.42714 12.0651 7.82286 11.8047 8.06694L7.60948 12L11.8047 15.9331C12.0651 16.1771 12.0651 16.5729 11.8047 16.8169C11.5444 17.061 11.1223 17.061 10.8619 16.8169L6.19526 12.4419C5.93491 12.1979 5.93491 11.8021 6.19526 11.5581L10.8619 7.18306C11.1223 6.93898 11.5444 6.93898 11.8047 7.18306Z" fill="#4C5A6F"/>
</svg>
