<svg width="24" height="24" viewBox="0 0 24 24" fill="none" xmlns="http://www.w3.org/2000/svg">
<path opacity="0.4" d="M15.01 13.7499V20.9898L3.01001 21.0099V13.7499L3 12.2499V6.06986C3 5.39986 3.34001 4.77983 3.89001 4.40983L7.89001 1.73984C8.56001 1.28984 9.43999 1.28984 10.11 1.73984L14.11 4.40983C14.67 4.77983 15 5.39986 15 6.06986V12.2499L15.01 13.7499Z" fill="white"/>
<path d="M22 20.2501H20.73V17.2501C21.68 16.9401 22.37 16.0501 22.37 15.0001V13.0001C22.37 11.6901 21.3 10.6201 19.99 10.6201C18.68 10.6201 17.61 11.6901 17.61 13.0001V15.0001C17.61 16.0401 18.29 16.9201 19.22 17.2401V20.2501H2C1.59 20.2501 1.25 20.5901 1.25 21.0001C1.25 21.4101 1.59 21.7501 2 21.7501H19.93C19.95 21.7501 19.96 21.7601 19.98 21.7601C20 21.7601 20.01 21.7501 20.03 21.7501H22C22.41 21.7501 22.75 21.4101 22.75 21.0001C22.75 20.5901 22.41 20.2501 22 20.2501Z" fill="white"/>
<path d="M15.01 13.75H3.01001L3 12.25H15L15.01 13.75Z" fill="white"/>
<path d="M9 21.75C8.59 21.75 8.25 21.41 8.25 21V17.25C8.25 16.84 8.59 16.5 9 16.5C9.41 16.5 9.75 16.84 9.75 17.25V21C9.75 21.41 9.41 21.75 9 21.75Z" fill="white"/>
<path d="M9 9.75C9.9665 9.75 10.75 8.9665 10.75 8C10.75 7.0335 9.9665 6.25 9 6.25C8.0335 6.25 7.25 7.0335 7.25 8C7.25 8.9665 8.0335 9.75 9 9.75Z" fill="white"/>
</svg>
