<svg width="24" height="24" viewBox="0 0 24 24" fill="none" xmlns="http://www.w3.org/2000/svg">
<path d="M7.24 2H5.34C3.15 2 2 3.15 2 5.33V7.23C2 9.41 3.15 10.56 5.33 10.56H7.23C9.41 10.56 10.56 9.41 10.56 7.23V5.33C10.57 3.15 9.42 2 7.24 2Z" fill="white"/>
<path opacity="0.4" d="M18.67 2H16.77C14.59 2 13.44 3.15 13.44 5.33V7.23C13.44 9.41 14.59 10.56 16.77 10.56H18.67C20.85 10.56 22 9.41 22 7.23V5.33C22 3.15 20.85 2 18.67 2Z" fill="white"/>
<path d="M18.67 13.4299H16.77C14.59 13.4299 13.44 14.5799 13.44 16.7599V18.6599C13.44 20.8399 14.59 21.9899 16.77 21.9899H18.67C20.85 21.9899 22 20.8399 22 18.6599V16.7599C22 14.5799 20.85 13.4299 18.67 13.4299Z" fill="white"/>
<path opacity="0.4" d="M7.24 13.4299H5.34C3.15 13.4299 2 14.5799 2 16.7599V18.6599C2 20.8499 3.15 21.9999 5.33 21.9999H7.23C9.41 21.9999 10.56 20.8499 10.56 18.6699V16.7699C10.57 14.5799 9.42 13.4299 7.24 13.4299Z" fill="white"/>
</svg>
