<svg width="24" height="24" viewBox="0 0 24 24" fill="none" xmlns="http://www.w3.org/2000/svg">
<path d="M12 17.3501C12.9002 17.3501 13.63 16.6203 13.63 15.7201C13.63 14.8199 12.9002 14.0901 12 14.0901C11.0998 14.0901 10.37 14.8199 10.37 15.7201C10.37 16.6203 11.0998 17.3501 12 17.3501Z" fill="#A3A7B5"/>
<path opacity="0.4" d="M16.65 9.43994H7.35C3.25 9.43994 2 10.6899 2 14.7899V16.6499C2 20.7499 3.25 21.9999 7.35 21.9999H16.65C20.75 21.9999 22 20.7499 22 16.6499V14.7899C22 10.6899 20.75 9.43994 16.65 9.43994ZM12 18.7399C10.33 18.7399 8.98 17.3799 8.98 15.7199C8.98 14.0599 10.33 12.6999 12 12.6999C13.67 12.6999 15.02 14.0599 15.02 15.7199C15.02 17.3799 13.67 18.7399 12 18.7399Z" fill="#A3A7B5"/>
<path d="M7.11997 9.45V8.28C7.11997 5.35 7.94997 3.4 12 3.4C16.05 3.4 16.88 5.35 16.88 8.28V9.45C17.39 9.46 17.85 9.48 18.28 9.54V8.28C18.28 5.58 17.63 2 12 2C6.36997 2 5.71997 5.58 5.71997 8.28V9.53C6.13997 9.48 6.60997 9.45 7.11997 9.45Z" fill="#A3A7B5"/>
</svg>
