<svg width="40" height="40" viewBox="0 0 40 40" fill="none" xmlns="http://www.w3.org/2000/svg">
<rect x="0.5" y="0.5" width="39" height="39" rx="19.5" fill="white"/>
<path fill-rule="evenodd" clip-rule="evenodd" d="M28.2928 20.8229C28.6922 20.7679 29 20.4205 29 20.0001C29 19.5415 28.6337 19.1698 28.1818 19.1698L13.8001 19.1698L18.9953 13.9187L19.0747 13.8257C19.313 13.5011 19.2876 13.0398 18.9977 12.7444C18.6788 12.4195 18.1608 12.4184 17.8406 12.742L11.2523 19.4004C11.213 19.4386 11.1776 19.4806 11.1464 19.526C10.9234 19.8502 10.9548 20.3001 11.2407 20.5889L17.8407 27.2581L17.9326 27.3383C18.2534 27.5787 18.7079 27.551 18.9977 27.2555C19.3166 26.9306 19.3155 26.4049 18.9953 26.0813L13.7988 20.8304L28.1818 20.8304L28.2928 20.8229Z" fill="#4C5A6F"/>
<rect x="0.5" y="0.5" width="39" height="39" rx="19.5" stroke="#A8B3C6"/>
</svg>
