<svg width="120" height="50" viewBox="0 0 120 50" fill="none" xmlns="http://www.w3.org/2000/svg">
<g clip-path="url(#clip0_15006_114397)">
<path fill-rule="evenodd" clip-rule="evenodd" d="M112.542 12.994V1H108.178V34.4399L112.542 34.2877V16.9323H120V12.994H112.542ZM84.1583 26.8497V16.9323H99.0655V12.985H79.7943V26.6259C79.7943 28.6488 80.1699 29.6602 80.8585 30.412H0V34.3593H18.9045V49.2802H23.2685V34.3593H54.2991V49.2802H58.6631V34.3593H101.73V30.412H87.306C85.2314 30.412 84.1672 29.3469 84.1672 26.8407L84.1583 26.8497ZM38.7749 26.3395L21.0418 13.6653L4.46236 25.5071L2.14624 22.258L21.0418 8.75134L38.7749 21.4256L56.508 8.75134L75.4036 22.258L73.0785 25.5071L56.508 13.6653L38.7749 26.3395Z" fill="white"/>
</g>
<defs>
<clipPath id="clip0_15006_114397">
<rect width="120" height="50" fill="white"/>
</clipPath>
</defs>
</svg>
