<svg width="16" height="16" viewBox="0 0 16 16" fill="none" xmlns="http://www.w3.org/2000/svg">
<path d="M14.3535 5.14551L11.8535 2.64593C11.853 2.64536 11.8523 2.6449 11.8517 2.64432C11.8406 2.6333 11.829 2.62276 11.8169 2.61282C11.8113 2.60823 11.8054 2.60425 11.7997 2.59994C11.7923 2.59444 11.7852 2.58878 11.7775 2.58368C11.7707 2.57913 11.7637 2.5752 11.7567 2.57101C11.7496 2.56679 11.7427 2.56238 11.7355 2.5585C11.7285 2.55476 11.7213 2.55164 11.7142 2.54825C11.7065 2.5446 11.6989 2.54077 11.691 2.53751C11.6843 2.53471 11.6774 2.53249 11.6706 2.53001C11.662 2.5269 11.6536 2.52365 11.6448 2.521C11.6382 2.519 11.6314 2.51755 11.6248 2.51584C11.6157 2.5135 11.6067 2.51099 11.5974 2.50916C11.5899 2.50769 11.5824 2.50687 11.5749 2.50574C11.5663 2.50442 11.5577 2.50284 11.549 2.50198C11.5365 2.50076 11.5239 2.50037 11.5114 2.50009C11.5076 2.5 11.5038 2.49951 11.5 2.49951C11.4964 2.49951 11.4929 2.49997 11.4893 2.50006C11.4765 2.50032 11.4637 2.50073 11.451 2.50198C11.4424 2.50282 11.4341 2.50438 11.4257 2.50563C11.418 2.50679 11.4102 2.50766 11.4026 2.50917C11.3935 2.51096 11.3847 2.5134 11.3759 2.51567C11.369 2.51744 11.3619 2.51895 11.3551 2.52103C11.3466 2.52359 11.3384 2.52675 11.3301 2.52974C11.323 2.53232 11.3158 2.53465 11.3088 2.53757C11.3012 2.54069 11.294 2.54436 11.2866 2.54785C11.2792 2.55136 11.2717 2.55467 11.2643 2.55858C11.2575 2.56226 11.251 2.56644 11.2443 2.5704C11.2369 2.5748 11.2295 2.57897 11.2223 2.58377C11.2152 2.58855 11.2085 2.59386 11.2016 2.59898C11.1954 2.60362 11.1891 2.60794 11.183 2.6129C11.172 2.62192 11.1616 2.63153 11.1514 2.64145C11.1498 2.643 11.148 2.64433 11.1465 2.64593L8.64646 5.14593C8.55269 5.2397 8.5 5.36689 8.5 5.4995C8.5 5.63212 8.55268 5.7593 8.64645 5.85307C8.74022 5.94685 8.8674 5.99953 9.00001 5.99953C9.13263 5.99954 9.25981 5.94686 9.35359 5.85309L11 4.20663V8.99951C11 9.13212 11.0527 9.2593 11.1464 9.35306C11.2402 9.44683 11.3674 9.49951 11.5 9.49951C11.6326 9.49951 11.7598 9.44683 11.8536 9.35306C11.9473 9.2593 12 9.13212 12 8.99951V4.2065L13.6464 5.85266C13.6929 5.89909 13.748 5.93591 13.8086 5.96103C13.8693 5.98615 13.9343 5.99908 14 5.99907C14.0656 5.99907 14.1307 5.98613 14.1913 5.961C14.252 5.93587 14.3071 5.89903 14.3535 5.8526C14.3999 5.80617 14.4368 5.75105 14.4619 5.69038C14.487 5.62972 14.4999 5.5647 14.4999 5.49904C14.4999 5.43338 14.487 5.36837 14.4619 5.30771C14.4367 5.24705 14.3999 5.19193 14.3535 5.14551Z" fill="#2F6CE4"/>
<path d="M3 8.49951H7.49994C7.63255 8.49951 7.75972 8.44683 7.85349 8.35307C7.94726 8.2593 7.99994 8.13212 7.99994 7.99951C7.99994 7.8669 7.94726 7.73973 7.85349 7.64596C7.75972 7.55219 7.63255 7.49951 7.49994 7.49951H3C2.86739 7.49951 2.74021 7.55219 2.64645 7.64596C2.55268 7.73973 2.5 7.8669 2.5 7.99951C2.5 8.13212 2.55268 8.2593 2.64645 8.35307C2.74021 8.44683 2.86739 8.49951 3 8.49951Z" fill="#4C5A6F"/>
<path d="M3 4.49951H6.49994C6.63255 4.49951 6.75972 4.44683 6.85349 4.35307C6.94726 4.2593 6.99994 4.13212 6.99994 3.99951C6.99994 3.8669 6.94726 3.73973 6.85349 3.64596C6.75972 3.55219 6.63255 3.49951 6.49994 3.49951H3C2.86739 3.49951 2.74021 3.55219 2.64645 3.64596C2.55268 3.73973 2.5 3.8669 2.5 3.99951C2.5 4.13212 2.55268 4.2593 2.64645 4.35307C2.74021 4.44683 2.86739 4.49951 3 4.49951Z" fill="#4C5A6F"/>
<path d="M11.4999 11.4995H3C2.86739 11.4995 2.74021 11.5522 2.64645 11.646C2.55268 11.7397 2.5 11.8669 2.5 11.9995C2.5 12.1321 2.55268 12.2593 2.64645 12.3531C2.74021 12.4468 2.86739 12.4995 3 12.4995H11.4999C11.6325 12.4995 11.7597 12.4468 11.8535 12.3531C11.9473 12.2593 11.9999 12.1321 11.9999 11.9995C11.9999 11.8669 11.9473 11.7397 11.8535 11.646C11.7597 11.5522 11.6325 11.4995 11.4999 11.4995Z" fill="#4C5A6F"/>
</svg>
