<svg width="16" height="16" viewBox="0 0 16 16" fill="none" xmlns="http://www.w3.org/2000/svg">
<path d="M14.3535 10.1464C14.2598 10.0527 14.1326 9.99996 14 9.99995C13.8674 9.99994 13.7402 10.0526 13.6464 10.1464L12 11.7925V6.99951C12 6.8669 11.9473 6.73973 11.8536 6.64596C11.7598 6.55219 11.6326 6.49951 11.5 6.49951C11.3674 6.49951 11.2402 6.55219 11.1465 6.64596C11.0527 6.73973 11 6.8669 11 6.99951V11.7924L9.35359 10.1459C9.25981 10.0522 9.13263 9.99949 9.00001 9.99949C8.8674 9.99949 8.74022 10.0522 8.64645 10.1459C8.55268 10.2397 8.5 10.3669 8.5 10.4995C8.5 10.6321 8.55269 10.7593 8.64646 10.8531L11.1465 13.3531C11.1481 13.3547 11.1499 13.3561 11.1515 13.3577C11.1617 13.3675 11.1721 13.3771 11.183 13.3861C11.1892 13.3911 11.1956 13.3956 11.2019 13.4003C11.2087 13.4053 11.2153 13.4106 11.2223 13.4153C11.2296 13.4201 11.2373 13.4244 11.2448 13.4289C11.2512 13.4327 11.2576 13.4368 11.2643 13.4404C11.2718 13.4445 11.2796 13.4479 11.2873 13.4515C11.2944 13.4549 11.3014 13.4584 11.3087 13.4614C11.3161 13.4645 11.3237 13.467 11.3312 13.4697C11.3391 13.4725 11.3468 13.4755 11.3549 13.4779C11.3623 13.4802 11.37 13.4819 11.3776 13.4838C11.3858 13.4858 11.3939 13.4882 11.4023 13.4898C11.4111 13.4915 11.4199 13.4926 11.4287 13.4938C11.436 13.4949 11.4432 13.4963 11.4507 13.497C11.4671 13.4986 11.4835 13.4995 11.5 13.4995C11.5165 13.4995 11.5329 13.4986 11.5493 13.497C11.5568 13.4963 11.5641 13.4949 11.5715 13.4938C11.5803 13.4926 11.589 13.4915 11.5977 13.4898C11.6061 13.4882 11.6144 13.4858 11.6228 13.4837C11.6302 13.4818 11.6377 13.4802 11.6451 13.478C11.6533 13.4755 11.6612 13.4724 11.6691 13.4695C11.6766 13.4669 11.684 13.4644 11.6913 13.4614C11.6987 13.4583 11.7059 13.4547 11.7132 13.4513C11.7207 13.4477 11.7283 13.4444 11.7357 13.4405C11.7426 13.4367 11.7492 13.4325 11.7559 13.4285C11.7632 13.4241 11.7705 13.42 11.7776 13.4153C11.785 13.4104 11.7919 13.4048 11.7991 13.3995C11.805 13.3951 11.8111 13.3909 11.8169 13.3862C11.829 13.3763 11.8406 13.3658 11.8517 13.3548C11.8523 13.3542 11.8529 13.3537 11.8535 13.3531L14.3535 10.8535C14.3999 10.8071 14.4367 10.752 14.4619 10.6913C14.487 10.6307 14.4999 10.5656 14.4999 10.5C14.4999 10.4343 14.487 10.3693 14.4619 10.3086C14.4368 10.248 14.4 10.1929 14.3535 10.1464Z" fill="#2F6CE4"/>
<path d="M7.49994 7.49951H3C2.86739 7.49951 2.74021 7.55219 2.64645 7.64596C2.55268 7.73973 2.5 7.8669 2.5 7.99951C2.5 8.13212 2.55268 8.2593 2.64645 8.35307C2.74021 8.44683 2.86739 8.49951 3 8.49951H7.49994C7.63255 8.49951 7.75972 8.44683 7.85349 8.35307C7.94726 8.2593 7.99994 8.13212 7.99994 7.99951C7.99994 7.8669 7.94726 7.73973 7.85349 7.64596C7.75972 7.55219 7.63255 7.49951 7.49994 7.49951Z" fill="#4C5A6F"/>
<path d="M3 4.49951H11.4999C11.6325 4.49951 11.7597 4.44683 11.8535 4.35307C11.9473 4.2593 11.9999 4.13212 11.9999 3.99951C11.9999 3.8669 11.9473 3.73973 11.8535 3.64596C11.7597 3.55219 11.6325 3.49951 11.4999 3.49951H3C2.86739 3.49951 2.74021 3.55219 2.64645 3.64596C2.55268 3.73973 2.5 3.8669 2.5 3.99951C2.5 4.13212 2.55268 4.2593 2.64645 4.35307C2.74021 4.44683 2.86739 4.49951 3 4.49951Z" fill="#4C5A6F"/>
<path d="M6.5 11.4995H3C2.86739 11.4995 2.74021 11.5522 2.64645 11.646C2.55268 11.7397 2.5 11.8669 2.5 11.9995C2.5 12.1321 2.55268 12.2593 2.64645 12.3531C2.74021 12.4468 2.86739 12.4995 3 12.4995H6.5C6.63261 12.4995 6.75979 12.4468 6.85355 12.3531C6.94732 12.2593 7 12.1321 7 11.9995C7 11.8669 6.94732 11.7397 6.85355 11.646C6.75979 11.5522 6.63261 11.4995 6.5 11.4995Z" fill="#4C5A6F"/>
</svg>
