<svg width="24" height="24" viewBox="0 0 24 24" fill="none" xmlns="http://www.w3.org/2000/svg">
<path d="M21.5303 15.2198C21.3896 15.0791 21.1989 15.0001 21 15.0001C20.8011 15 20.6103 15.079 20.4696 15.2197L18 17.6889V10.4994C18 10.3005 17.921 10.1097 17.7803 9.96906C17.6397 9.82841 17.4489 9.74939 17.25 9.74939C17.0511 9.74939 16.8603 9.82841 16.7197 9.96906C16.579 10.1097 16.5 10.3005 16.5 10.4994V17.6887L14.0304 15.219C13.8897 15.0784 13.6989 14.9994 13.5 14.9994C13.3011 14.9994 13.1103 15.0784 12.9697 15.219C12.829 15.3597 12.75 15.5505 12.75 15.7494C12.75 15.9483 12.829 16.1391 12.9697 16.2798L16.7197 20.0298C16.7221 20.0322 16.7248 20.0342 16.7273 20.0366C16.7425 20.0514 16.7581 20.0658 16.7745 20.0793C16.7837 20.0868 16.7934 20.0935 16.8029 20.1005C16.813 20.1081 16.8229 20.116 16.8334 20.123C16.8444 20.1303 16.8559 20.1367 16.8671 20.1435C16.8768 20.1492 16.8864 20.1554 16.8964 20.1607C16.9077 20.1668 16.9194 20.1719 16.9309 20.1774C16.9416 20.1824 16.9521 20.1877 16.963 20.1923C16.9741 20.1968 16.9855 20.2006 16.9968 20.2046C17.0086 20.2088 17.0202 20.2134 17.0323 20.217C17.0435 20.2205 17.055 20.2229 17.0664 20.2258C17.0787 20.2289 17.0909 20.2324 17.1035 20.2348C17.1166 20.2374 17.1298 20.239 17.1431 20.2409C17.1541 20.2425 17.1649 20.2445 17.176 20.2456C17.2006 20.2481 17.2253 20.2494 17.25 20.2494C17.2747 20.2494 17.2994 20.2481 17.324 20.2456C17.3352 20.2445 17.3462 20.2424 17.3573 20.2408C17.3704 20.239 17.3835 20.2374 17.3965 20.2349C17.4092 20.2324 17.4216 20.2288 17.4341 20.2257C17.4453 20.2228 17.4566 20.2204 17.4677 20.2171C17.4799 20.2133 17.4918 20.2087 17.5037 20.2044C17.5148 20.2005 17.526 20.1968 17.5369 20.1923C17.5481 20.1876 17.5588 20.1822 17.5698 20.1771C17.581 20.1717 17.5924 20.1667 17.6035 20.1608C17.6139 20.1552 17.6238 20.1489 17.6339 20.1428C17.6448 20.1363 17.6558 20.1302 17.6664 20.1231C17.6775 20.1157 17.6879 20.1074 17.6986 20.0994C17.7075 20.0927 17.7167 20.0865 17.7254 20.0794C17.7435 20.0645 17.7609 20.0488 17.7775 20.0323C17.7784 20.0314 17.7794 20.0307 17.7803 20.0298L21.5302 16.2804C21.5998 16.2108 21.6551 16.1281 21.6928 16.0371C21.7305 15.9461 21.7499 15.8486 21.7499 15.7501C21.7499 15.6516 21.7305 15.5541 21.6928 15.4631C21.6552 15.3721 21.5999 15.2894 21.5303 15.2198Z" fill="#4C5A6F"/>
<path d="M11.2499 11.2494H4.5C4.30109 11.2494 4.11032 11.3284 3.96967 11.4691C3.82902 11.6097 3.75 11.8005 3.75 11.9994C3.75 12.1983 3.82902 12.3891 3.96967 12.5297C4.11032 12.6704 4.30109 12.7494 4.5 12.7494H11.2499C11.4488 12.7494 11.6396 12.6704 11.7802 12.5297C11.9209 12.3891 11.9999 12.1983 11.9999 11.9994C11.9999 11.8005 11.9209 11.6097 11.7802 11.4691C11.6396 11.3284 11.4488 11.2494 11.2499 11.2494Z" fill="#4C5A6F"/>
<path d="M4.5 6.74939H17.2499C17.4488 6.74939 17.6396 6.67037 17.7802 6.52972C17.9209 6.38907 17.9999 6.1983 17.9999 5.99939C17.9999 5.80048 17.9209 5.60971 17.7802 5.46906C17.6396 5.32841 17.4488 5.24939 17.2499 5.24939H4.5C4.30109 5.24939 4.11032 5.32841 3.96967 5.46906C3.82902 5.60971 3.75 5.80048 3.75 5.99939C3.75 6.1983 3.82902 6.38907 3.96967 6.52972C4.11032 6.67037 4.30109 6.74939 4.5 6.74939Z" fill="#4C5A6F"/>
<path d="M9.75 17.2494H4.5C4.30109 17.2494 4.11032 17.3284 3.96967 17.4691C3.82902 17.6097 3.75 17.8005 3.75 17.9994C3.75 18.1983 3.82902 18.3891 3.96967 18.5297C4.11032 18.6704 4.30109 18.7494 4.5 18.7494H9.75C9.94891 18.7494 10.1397 18.6704 10.2803 18.5297C10.421 18.3891 10.5 18.1983 10.5 17.9994C10.5 17.8005 10.421 17.6097 10.2803 17.4691C10.1397 17.3284 9.94891 17.2494 9.75 17.2494Z" fill="#4C5A6F"/>
</svg>
