<svg width="24" height="24" viewBox="0 0 24 24" fill="none" xmlns="http://www.w3.org/2000/svg">
<g id="Common / Fill icon/Swap">
<path id="Vector" fill-rule="evenodd" clip-rule="evenodd" d="M7.3586 3.23039C7.06449 3.01132 6.64624 3.03566 6.37972 3.30342L2.30194 7.40008L2.22952 7.48437C2.01234 7.77848 2.03751 8.19509 2.30439 8.46074L2.38868 8.53316C2.68279 8.75034 3.0994 8.72517 3.36505 8.45829L6.16119 5.64866V17.4508L6.16804 17.5526C6.2177 17.9186 6.5315 18.2008 6.91119 18.2008C7.32541 18.2008 7.66119 17.865 7.66119 17.4508V5.64885L10.4575 8.45829L10.5414 8.5311C10.8346 8.74963 11.2513 8.72639 11.5182 8.46074C11.8117 8.16852 11.8128 7.69365 11.5206 7.40008L7.44283 3.30342L7.43844 3.29962C7.41507 3.27651 7.39018 3.25492 7.36394 3.23503L7.3586 3.23039ZM17.5828 6.44462C17.5331 6.07854 17.2193 5.79639 16.8396 5.79639C16.4254 5.79639 16.0896 6.13217 16.0896 6.54639V18.3484L13.2933 15.5393L13.2093 15.4664C12.9162 15.2479 12.4995 15.2712 12.2326 15.5368C11.939 15.829 11.9379 16.3039 12.2302 16.5975L16.3079 20.6941L16.3158 20.7009C16.337 20.7216 16.3595 20.7411 16.383 20.7592L16.3922 20.7672C16.6863 20.9862 17.1045 20.9619 17.371 20.6941L21.4488 16.5975L21.5213 16.5132C21.7384 16.2191 21.7133 15.8025 21.4464 15.5368C21.1528 15.2446 20.6779 15.2457 20.3857 15.5393L17.5896 18.3475V6.54639L17.5828 6.44462Z" fill="#4C5A6F"/>
</g>
</svg>
