<svg width="16" height="16" viewBox="0 0 16 16" fill="none" xmlns="http://www.w3.org/2000/svg">
	<path d="M8 2.06836C6.81331 2.06836 5.65328 2.42025 4.66658 3.07954C3.67989 3.73883 2.91085 4.6759 2.45673 5.77226C2.0026 6.86861 1.88378 8.07501 2.11529 9.2389C2.3468 10.4028 2.91825 11.4719 3.75736 12.311C4.59648 13.1501 5.66557 13.7216 6.82946 13.9531C7.99335 14.1846 9.19974 14.0658 10.2961 13.6116C11.3925 13.1575 12.3295 12.3885 12.9888 11.4018C13.6481 10.4151 14 9.25505 14 8.06836C13.9982 6.47762 13.3654 4.95257 12.2406 3.82775C11.1158 2.70293 9.59074 2.0702 8 2.06836V2.06836ZM10.1725 9.58819C10.2154 9.63103 10.2495 9.6819 10.2727 9.73791C10.296 9.79392 10.308 9.85397 10.308 9.91461C10.308 9.97526 10.2961 10.0353 10.2729 10.0914C10.2497 10.1474 10.2157 10.1983 10.1728 10.2412C10.1299 10.2841 10.079 10.3181 10.023 10.3413C9.96696 10.3645 9.9069 10.3764 9.84626 10.3763C9.78561 10.3763 9.72557 10.3643 9.66956 10.3411C9.61355 10.3178 9.56267 10.2838 9.51983 10.2408L8 8.721L6.48017 10.2408C6.39359 10.3272 6.27626 10.3757 6.15395 10.3757C6.03164 10.3756 5.91436 10.327 5.82787 10.2405C5.74139 10.154 5.69277 10.0367 5.69271 9.91441C5.69264 9.7921 5.74113 9.67477 5.82753 9.58819L7.34736 8.06836L5.82753 6.54853C5.74113 6.46195 5.69264 6.34462 5.69271 6.22231C5.69277 6.1 5.74139 5.98272 5.82787 5.89623C5.91436 5.80974 6.03164 5.76113 6.15395 5.76106C6.27626 5.761 6.39359 5.80949 6.48017 5.89588L8 7.41571L9.51983 5.89588C9.60641 5.80949 9.72374 5.761 9.84605 5.76106C9.96836 5.76113 10.0856 5.80974 10.1721 5.89623C10.2586 5.98272 10.3072 6.1 10.3073 6.22231C10.3074 6.34462 10.2589 6.46195 10.1725 6.54853L8.65265 8.06836L10.1725 9.58819Z" fill="#7F8392" />
</svg>
