<svg width="100" height="101" viewBox="0 0 100 101" fill="none" xmlns="http://www.w3.org/2000/svg">
<rect x="0.5" y="1" width="99" height="99" rx="11.5" fill="white" fill-opacity="0.1"/>
<path fill-rule="evenodd" clip-rule="evenodd" d="M50 40.25C49.3096 40.25 48.75 40.8096 48.75 41.5V49.25H41C40.3096 49.25 39.75 49.8096 39.75 50.5C39.75 51.1904 40.3096 51.75 41 51.75H48.75V59.5C48.75 60.1904 49.3096 60.75 50 60.75C50.6904 60.75 51.25 60.1904 51.25 59.5V51.75H59C59.6904 51.75 60.25 51.1904 60.25 50.5C60.25 49.8096 59.6904 49.25 59 49.25H51.25V41.5C51.25 40.8096 50.6904 40.25 50 40.25Z" fill="#A3A7B5"/>
<rect x="0.5" y="1" width="99" height="99" rx="11.5" stroke="#A3A7B5" stroke-dasharray="8 8"/>
</svg>
