<svg width="100" height="100" viewBox="0 0 100 100" fill="none" xmlns="http://www.w3.org/2000/svg">
<path fill-rule="evenodd" clip-rule="evenodd" d="M54.4591 36.5637L67.5428 58.9906C67.8308 59.66 67.9568 60.2043 67.9928 60.7698C68.0648 62.091 67.5968 63.3752 66.679 64.3635C65.7612 65.3482 64.5194 65.9295 63.1696 66H36.822C36.2641 65.9665 35.7062 65.8415 35.1843 65.6477C32.5747 64.6083 31.315 61.6841 32.3768 59.1491L45.5506 36.5479C46.0005 35.7534 46.6844 35.0681 47.5302 34.6277C49.9778 33.2871 53.0913 34.1679 54.4591 36.5637ZM51.5615 51.3435C51.5615 52.1891 50.8597 52.8955 49.9958 52.8955C49.132 52.8955 48.4121 52.1891 48.4121 51.3435V46.36C48.4121 45.5126 49.132 44.8274 49.9958 44.8274C50.8597 44.8274 51.5615 45.5126 51.5615 46.36V51.3435ZM49.9958 58.9201C49.132 58.9201 48.4121 58.2137 48.4121 57.3699C48.4121 56.5226 49.132 55.818 49.9958 55.818C50.8597 55.818 51.5615 56.5068 51.5615 57.3506C51.5615 58.2137 50.8597 58.9201 49.9958 58.9201Z" fill="white"/>
</svg>
