<svg width="300" height="311" viewBox="0 0 300 311" fill="none" xmlns="http://www.w3.org/2000/svg">
<path d="M76 51C76 43.268 82.268 37 90 37H210C217.732 37 224 43.268 224 51V203C224 210.732 217.732 217 210 217H90C82.268 217 76 210.732 76 203V51Z" fill="white" fill-opacity="0.1"/>
<path fill-rule="evenodd" clip-rule="evenodd" d="M90 40C88.866 40 87.7774 40.1706 86.7555 40.4855C85.1721 40.9733 83.4931 40.0852 83.0052 38.5018C82.5173 36.9184 83.4054 35.2393 84.9888 34.7515C86.5766 34.2623 88.2604 34 90 34H93.8095C95.4664 34 96.8095 35.3431 96.8095 37C96.8095 38.6569 95.4664 40 93.8095 40H90ZM103.19 37C103.19 35.3431 104.534 34 106.19 34H113.81C115.466 34 116.81 35.3431 116.81 37C116.81 38.6569 115.466 40 113.81 40H106.19C104.534 40 103.19 38.6569 103.19 37ZM123.19 37C123.19 35.3431 124.534 34 126.19 34H133.81C135.466 34 136.81 35.3431 136.81 37C136.81 38.6569 135.466 40 133.81 40H126.19C124.534 40 123.19 38.6569 123.19 37ZM143.19 37C143.19 35.3431 144.534 34 146.19 34H153.81C155.466 34 156.81 35.3431 156.81 37C156.81 38.6569 155.466 40 153.81 40H146.19C144.534 40 143.19 38.6569 143.19 37ZM163.19 37C163.19 35.3431 164.534 34 166.19 34H173.81C175.466 34 176.81 35.3431 176.81 37C176.81 38.6569 175.466 40 173.81 40H166.19C164.534 40 163.19 38.6569 163.19 37ZM183.19 37C183.19 35.3431 184.534 34 186.19 34H193.81C195.466 34 196.81 35.3431 196.81 37C196.81 38.6569 195.466 40 193.81 40H186.19C184.534 40 183.19 38.6569 183.19 37ZM203.19 37C203.19 35.3431 204.534 34 206.19 34H210C211.74 34 213.423 34.2623 215.011 34.7515C216.595 35.2393 217.483 36.9184 216.995 38.5018C216.507 40.0852 214.828 40.9733 213.244 40.4855C212.223 40.1706 211.134 40 210 40H206.19C204.534 40 203.19 38.6569 203.19 37ZM222.498 44.0052C224.082 43.5173 225.761 44.4054 226.249 45.9888C226.738 47.5766 227 49.2604 227 51V55.1361C227 56.7929 225.657 58.1361 224 58.1361C222.343 58.1361 221 56.7929 221 55.1361V51C221 49.866 220.829 48.7774 220.515 47.7555C220.027 46.1721 220.915 44.4931 222.498 44.0052ZM77.5018 44.0052C79.0852 44.4931 79.9733 46.1721 79.4855 47.7555C79.1706 48.7774 79 49.866 79 51V55.1361C79 56.7929 77.6569 58.1361 76 58.1361C74.3431 58.1361 73 56.7929 73 55.1361V51C73 49.2604 73.2623 47.5766 73.7515 45.9888C74.2393 44.4054 75.9184 43.5173 77.5018 44.0052ZM224 65.5782C225.657 65.5782 227 66.9214 227 68.5782V76.8503C227 78.5072 225.657 79.8503 224 79.8503C222.343 79.8503 221 78.5072 221 76.8503V68.5782C221 66.9214 222.343 65.5782 224 65.5782ZM76 65.5782C77.6569 65.5782 79 66.9214 79 68.5782V76.8503C79 78.5072 77.6569 79.8503 76 79.8503C74.3431 79.8503 73 78.5072 73 76.8503V68.5782C73 66.9214 74.3431 65.5782 76 65.5782ZM76 87.2925C77.6569 87.2925 79 88.6357 79 90.2925V98.5646C79 100.221 77.6569 101.565 76 101.565C74.3431 101.565 73 100.221 73 98.5646V90.2925C73 88.6357 74.3431 87.2925 76 87.2925ZM224 87.2925C225.657 87.2925 227 88.6357 227 90.2925V98.5646C227 100.221 225.657 101.565 224 101.565C222.343 101.565 221 100.221 221 98.5646V90.2925C221 88.6357 222.343 87.2925 224 87.2925ZM76 109.007C77.6569 109.007 79 110.35 79 112.007V120.279C79 121.936 77.6569 123.279 76 123.279C74.3431 123.279 73 121.936 73 120.279V112.007C73 110.35 74.3431 109.007 76 109.007ZM224 109.007C225.657 109.007 227 110.35 227 112.007V120.279C227 121.936 225.657 123.279 224 123.279C222.343 123.279 221 121.936 221 120.279V112.007C221 110.35 222.343 109.007 224 109.007ZM76 130.721C77.6569 130.721 79 132.064 79 133.721V141.993C79 143.65 77.6569 144.993 76 144.993C74.3431 144.993 73 143.65 73 141.993V133.721C73 132.064 74.3431 130.721 76 130.721ZM224 130.721C225.657 130.721 227 132.064 227 133.721V141.993C227 143.65 225.657 144.993 224 144.993C222.343 144.993 221 143.65 221 141.993V133.721C221 132.064 222.343 130.721 224 130.721ZM76 152.435C77.6569 152.435 79 153.779 79 155.435V163.707C79 165.364 77.6569 166.707 76 166.707C74.3431 166.707 73 165.364 73 163.707V155.435C73 153.779 74.3431 152.435 76 152.435ZM224 152.435C225.657 152.435 227 153.779 227 155.435V163.707C227 165.364 225.657 166.707 224 166.707C222.343 166.707 221 165.364 221 163.707V155.435C221 153.779 222.343 152.435 224 152.435ZM76 174.15C77.6569 174.15 79 175.493 79 177.15V185.422C79 187.079 77.6569 188.422 76 188.422C74.3431 188.422 73 187.079 73 185.422V177.15C73 175.493 74.3431 174.15 76 174.15ZM224 174.15C225.657 174.15 227 175.493 227 177.15V185.422C227 187.079 225.657 188.422 224 188.422C222.343 188.422 221 187.079 221 185.422V177.15C221 175.493 222.343 174.15 224 174.15ZM76 195.864C77.6569 195.864 79 197.207 79 198.864V203C79 204.134 79.1706 205.223 79.4855 206.244C79.9733 207.828 79.0852 209.507 77.5018 209.995C75.9184 210.483 74.2393 209.595 73.7515 208.011C73.2623 206.423 73 204.74 73 203V198.864C73 197.207 74.3431 195.864 76 195.864ZM224 195.864C225.657 195.864 227 197.207 227 198.864V203C227 204.74 226.738 206.423 226.249 208.011C225.761 209.595 224.082 210.483 222.498 209.995C220.915 209.507 220.027 207.828 220.515 206.244C220.829 205.223 221 204.134 221 203V198.864C221 197.207 222.343 195.864 224 195.864ZM83.0052 215.498C83.4931 213.915 85.1721 213.027 86.7555 213.515C87.7774 213.829 88.866 214 90 214H93.8095C95.4664 214 96.8095 215.343 96.8095 217C96.8095 218.657 95.4664 220 93.8095 220H90C88.2604 220 86.5766 219.738 84.9888 219.249C83.4054 218.761 82.5173 217.082 83.0052 215.498ZM216.995 215.498C217.483 217.082 216.595 218.761 215.011 219.249C213.423 219.738 211.74 220 210 220H206.19C204.534 220 203.19 218.657 203.19 217C203.19 215.343 204.534 214 206.19 214H210C211.134 214 212.223 213.829 213.244 213.515C214.828 213.027 216.507 213.915 216.995 215.498ZM103.19 217C103.19 215.343 104.534 214 106.19 214H113.81C115.466 214 116.81 215.343 116.81 217C116.81 218.657 115.466 220 113.81 220H106.19C104.534 220 103.19 218.657 103.19 217ZM123.19 217C123.19 215.343 124.534 214 126.19 214H133.81C135.466 214 136.81 215.343 136.81 217C136.81 218.657 135.466 220 133.81 220H126.19C124.534 220 123.19 218.657 123.19 217ZM143.19 217C143.19 215.343 144.534 214 146.19 214H153.81C155.466 214 156.81 215.343 156.81 217C156.81 218.657 155.466 220 153.81 220H146.19C144.534 220 143.19 218.657 143.19 217ZM163.19 217C163.19 215.343 164.534 214 166.19 214H173.81C175.466 214 176.81 215.343 176.81 217C176.81 218.657 175.466 220 173.81 220H166.19C164.534 220 163.19 218.657 163.19 217ZM183.19 217C183.19 215.343 184.534 214 186.19 214H193.81C195.466 214 196.81 215.343 196.81 217C196.81 218.657 195.466 220 193.81 220H186.19C184.534 220 183.19 218.657 183.19 217Z" fill="#C5C5C5"/>
<path fill-rule="evenodd" clip-rule="evenodd" d="M126.855 101.133L120.793 95.0712L114.732 101.133C114.341 101.523 113.708 101.523 113.318 101.133L111.061 98.8764C110.671 98.4859 110.671 97.8527 111.061 97.4622L117.123 91.4008L111.061 85.3395C110.671 84.949 110.671 84.3158 111.061 83.9253L113.318 81.6691C113.708 81.2786 114.341 81.2786 114.732 81.6691L120.793 87.7305L126.855 81.6691C127.245 81.2786 127.878 81.2786 128.269 81.6691L130.525 83.9253C130.915 84.3158 130.915 84.949 130.525 85.3395L124.464 91.4008L130.525 97.4622C130.915 97.8527 130.915 98.4859 130.525 98.8764L128.269 101.133C127.878 101.523 127.245 101.523 126.855 101.133ZM173.855 101.133L167.793 95.0712L161.732 101.133C161.341 101.523 160.708 101.523 160.318 101.133L158.061 98.8764C157.671 98.4859 157.671 97.8527 158.061 97.4622L164.123 91.4008L158.061 85.3395C157.671 84.949 157.671 84.3158 158.061 83.9253L160.318 81.6691C160.708 81.2786 161.341 81.2786 161.732 81.6691L167.793 87.7305L173.855 81.6691C174.245 81.2786 174.878 81.2786 175.269 81.6691L177.525 83.9253C177.915 84.3158 177.915 84.949 177.525 85.3395L171.464 91.4008L177.525 97.4622C177.915 97.8527 177.915 98.4859 177.525 98.8764L175.269 101.133C174.878 101.523 174.245 101.523 173.855 101.133Z" fill="#85848A"/>
<path fill-rule="evenodd" clip-rule="evenodd" d="M145.5 124.75C136.972 124.75 129.787 126.663 125.748 129.24C124.235 130.205 122.226 129.761 121.26 128.248C120.295 126.735 120.739 124.726 122.252 123.76C127.687 120.292 136.23 118.25 145.5 118.25C154.77 118.25 163.312 120.292 168.748 123.76C170.261 124.726 170.705 126.735 169.74 128.248C168.774 129.761 166.765 130.205 165.252 129.24C161.213 126.663 154.028 124.75 145.5 124.75Z" fill="#85848A"/>
<path fill-rule="evenodd" clip-rule="evenodd" d="M220.689 147.426L240.314 181.767C240.746 182.792 240.935 183.625 240.989 184.491C241.097 186.514 240.395 188.481 239.019 189.994C237.642 191.502 235.779 192.392 233.754 192.5H194.233C193.396 192.449 192.559 192.257 191.776 191.961C187.862 190.369 185.972 185.891 187.565 182.01L207.326 147.401C208.001 146.185 209.027 145.136 210.295 144.461C213.967 142.408 218.637 143.757 220.689 147.426ZM216.342 170.057C216.342 171.352 215.289 172.434 213.994 172.434C212.698 172.434 211.618 171.352 211.618 170.057V162.426C211.618 161.129 212.698 160.079 213.994 160.079C215.289 160.079 216.342 161.129 216.342 162.426V170.057ZM213.994 181.659C212.698 181.659 211.618 180.577 211.618 179.285C211.618 177.988 212.698 176.909 213.994 176.909C215.289 176.909 216.342 177.963 216.342 179.256C216.342 180.577 215.289 181.659 213.994 181.659Z" fill="white"/>
<path d="M77.0984 277.477H75.075V263.203H77.0984V277.477ZM69.3719 264.211C70.0854 264.211 70.726 264.419 71.2937 264.836C71.8667 265.247 72.312 265.839 72.6297 266.609C72.9526 267.375 73.1141 268.266 73.1141 269.281C73.1141 270.302 72.9526 271.198 72.6297 271.969C72.312 272.734 71.8667 273.323 71.2937 273.734C70.726 274.146 70.0854 274.352 69.3719 274.352C68.6479 274.357 67.9995 274.154 67.4266 273.742C66.8589 273.326 66.4135 272.734 66.0906 271.969C65.7677 271.198 65.6062 270.302 65.6062 269.281C65.6062 268.266 65.7677 267.375 66.0906 266.609C66.4135 265.839 66.8589 265.247 67.4266 264.836C67.9995 264.419 68.6479 264.211 69.3719 264.211ZM69.3719 266.016C69.0021 266.01 68.6766 266.135 68.3953 266.391C68.1193 266.641 67.9057 267.013 67.7547 267.508C67.6089 267.997 67.5385 268.589 67.5437 269.281C67.5385 269.974 67.6089 270.565 67.7547 271.055C67.9057 271.544 68.1193 271.917 68.3953 272.172C68.6766 272.422 69.0021 272.547 69.3719 272.547C69.7312 272.547 70.049 272.422 70.325 272.172C70.601 271.917 70.8146 271.544 70.9656 271.055C71.1167 270.565 71.1922 269.974 71.1922 269.281C71.1922 268.589 71.1167 267.997 70.9656 267.508C70.8146 267.018 70.601 266.646 70.325 266.391C70.049 266.135 69.7312 266.01 69.3719 266.016Z" fill="white" fill-opacity="0.5"/>
<path d="M86.0062 274.047H79.1312V264.508H86.0062V274.047ZM81.1156 272.469H84.0609V266.062H81.1156V272.469ZM90.3266 277.477H88.3031V263.203H90.3266V277.477Z" fill="white" fill-opacity="0.5"/>
<path d="M96.7422 267.086C96.737 268.206 96.5781 269.273 96.2656 270.289C95.9531 271.305 95.4922 272.206 94.8828 272.992C94.2734 273.773 93.5391 274.365 92.6797 274.766L91.5391 273.195C92.3047 272.852 92.9557 272.357 93.4922 271.711C94.0339 271.06 94.4401 270.336 94.7109 269.539C94.987 268.737 95.125 267.919 95.125 267.086V265.43H96.7422V267.086ZM97.1562 267.086C97.1562 267.883 97.2917 268.659 97.5625 269.414C97.8333 270.164 98.2344 270.844 98.7656 271.453C99.3021 272.057 99.9557 272.518 100.727 272.836L99.6484 274.398C98.7682 274.029 98.0234 273.474 97.4141 272.734C96.8047 271.99 96.3464 271.133 96.0391 270.164C95.7318 269.195 95.5807 268.169 95.5859 267.086V265.43H97.1562V267.086ZM100.141 266.219H92.1094V264.594H100.141V266.219ZM103.555 277.438H101.531V263.203H103.555V277.438Z" fill="white" fill-opacity="0.5"/>
<path d="M120.987 275.859H107.987V274.227H120.987V275.859ZM115.441 274.906H113.48V271.531H115.441V274.906ZM119.487 268.852H111.472V271.281H109.487V267.289H117.519V265.742H109.464V264.141H119.487V268.852ZM119.823 272.07H109.487V270.453H119.823V272.07Z" fill="white" fill-opacity="0.5"/>
<path d="M132.794 271.398H122.747V269.805H132.794V271.398ZM134.216 275.711H121.216V274.07H134.216V275.711ZM132.692 266.016H124.716V270.469H122.747V264.406H132.692V266.016Z" fill="white" fill-opacity="0.5"/>
<path d="M142.553 270.07H140.178V268.477H142.553V270.07ZM146.764 277.438H144.85V263.203H146.764V277.438ZM143.803 276.781H141.92V263.422H143.803V276.781ZM137.655 264.227C138.28 264.227 138.829 264.435 139.303 264.852C139.782 265.268 140.149 265.865 140.405 266.641C140.665 267.417 140.795 268.328 140.795 269.375C140.795 270.427 140.665 271.344 140.405 272.125C140.149 272.901 139.782 273.5 139.303 273.922C138.829 274.339 138.28 274.547 137.655 274.547C137.03 274.547 136.485 274.339 136.022 273.922C135.558 273.5 135.196 272.901 134.936 272.125C134.681 271.344 134.553 270.427 134.553 269.375C134.553 268.328 134.681 267.417 134.936 266.641C135.196 265.865 135.558 265.268 136.022 264.852C136.485 264.435 137.03 264.227 137.655 264.227ZM137.655 266.117C137.384 266.117 137.155 266.237 136.967 266.477C136.78 266.716 136.636 267.081 136.537 267.57C136.439 268.055 136.392 268.656 136.397 269.375C136.392 270.094 136.439 270.698 136.537 271.188C136.636 271.672 136.78 272.034 136.967 272.273C137.16 272.513 137.389 272.633 137.655 272.633C137.931 272.633 138.165 272.513 138.358 272.273C138.556 272.034 138.704 271.672 138.803 271.188C138.907 270.703 138.959 270.099 138.959 269.375C138.959 268.656 138.907 268.055 138.803 267.57C138.704 267.081 138.556 266.716 138.358 266.477C138.165 266.237 137.931 266.117 137.655 266.117Z" fill="white" fill-opacity="0.5"/>
<path d="M162.65 270.406H160.673V263.203H162.65V270.406ZM162.666 274.883H155.111V276.352H153.166V273.406H160.681V272.578H153.134V271.031H162.666V274.883ZM163.056 277.336H153.166V275.773H163.056V277.336ZM155.806 264.617C155.801 265.518 155.645 266.359 155.337 267.141C155.03 267.922 154.567 268.604 153.947 269.188C153.332 269.766 152.58 270.188 151.689 270.453L150.705 268.891C151.47 268.661 152.111 268.328 152.627 267.891C153.142 267.448 153.522 266.945 153.767 266.383C154.017 265.82 154.145 265.232 154.15 264.617V263.531H155.806V264.617ZM156.22 264.617C156.215 265.216 156.332 265.781 156.572 266.312C156.817 266.844 157.189 267.318 157.689 267.734C158.189 268.146 158.817 268.458 159.572 268.672L158.595 270.211C157.71 269.951 156.965 269.544 156.361 268.992C155.757 268.44 155.304 267.792 155.002 267.047C154.699 266.302 154.548 265.492 154.548 264.617V263.531H156.22V264.617Z" fill="white" fill-opacity="0.5"/>
<path d="M176.323 277.438H174.409V263.203H176.323V277.438ZM175.042 270.312H172.636V268.695H175.042V270.312ZM173.237 276.75H171.362V263.461H173.237V276.75ZM170.667 266.43H164.105V264.828H170.667V266.43ZM163.847 272.555C165.139 272.555 166.381 272.534 167.573 272.492C168.766 272.451 169.839 272.362 170.792 272.227L170.909 273.672C169.941 273.875 168.857 274.013 167.659 274.086C166.461 274.154 165.264 274.185 164.066 274.18L163.847 272.555ZM166.839 273.008H165.034V265.859H166.839V273.008ZM169.753 273.008H167.956V265.859H169.753V273.008Z" fill="white" fill-opacity="0.5"/>
<path d="M189.442 271.992H187.544V263.234H189.442V271.992ZM188.052 268.492H185.723V266.883H188.052V268.492ZM186.434 271.836H184.583V263.422H186.434V271.836ZM184.13 266.164H177.153V264.578H184.13V266.164ZM180.661 266.609C181.26 266.609 181.794 266.714 182.262 266.922C182.736 267.125 183.106 267.417 183.372 267.797C183.637 268.172 183.77 268.602 183.77 269.086C183.77 269.57 183.637 270 183.372 270.375C183.106 270.75 182.736 271.044 182.262 271.258C181.789 271.466 181.255 271.57 180.661 271.57C180.072 271.57 179.544 271.466 179.075 271.258C178.611 271.044 178.247 270.75 177.981 270.375C177.716 270 177.583 269.57 177.583 269.086C177.583 268.602 177.716 268.172 177.981 267.797C178.247 267.417 178.611 267.125 179.075 266.922C179.539 266.714 180.067 266.609 180.661 266.609ZM180.661 268.031C180.401 268.031 180.171 268.073 179.973 268.156C179.781 268.234 179.63 268.354 179.52 268.516C179.416 268.672 179.364 268.862 179.364 269.086C179.364 269.305 179.416 269.492 179.52 269.648C179.63 269.805 179.781 269.927 179.973 270.016C180.171 270.099 180.401 270.141 180.661 270.141C180.921 270.141 181.151 270.099 181.348 270.016C181.546 269.927 181.7 269.805 181.809 269.648C181.919 269.492 181.973 269.305 181.973 269.086C181.973 268.862 181.919 268.672 181.809 268.516C181.7 268.354 181.546 268.234 181.348 268.156C181.151 268.073 180.921 268.031 180.661 268.031ZM181.645 265.703H179.653V263.297H181.645V265.703ZM182.208 272.711C182.213 273.398 182.096 274.044 181.856 274.648C181.617 275.247 181.252 275.776 180.762 276.234C180.278 276.693 179.677 277.036 178.958 277.266L178.012 275.781C178.606 275.609 179.104 275.365 179.505 275.047C179.906 274.724 180.203 274.365 180.395 273.969C180.593 273.568 180.695 273.148 180.7 272.711V272.43H182.208V272.711ZM182.677 272.711C182.671 273.159 182.752 273.589 182.919 274C183.085 274.406 183.348 274.781 183.708 275.125C184.067 275.464 184.523 275.734 185.075 275.938L184.27 277.406C183.557 277.156 182.973 276.789 182.52 276.305C182.067 275.826 181.736 275.281 181.528 274.672C181.32 274.057 181.216 273.404 181.216 272.711V272.43H182.677V272.711ZM187.333 272.711C187.328 273.357 187.218 273.99 187.005 274.609C186.796 275.224 186.463 275.781 186.005 276.281C185.546 276.781 184.968 277.156 184.27 277.406L183.466 275.938C184.002 275.714 184.453 275.424 184.817 275.07C185.182 274.716 185.45 274.336 185.622 273.93C185.794 273.523 185.882 273.117 185.887 272.711V272.43H187.333V272.711ZM187.872 272.711C187.867 273.169 187.96 273.602 188.153 274.008C188.346 274.414 188.64 274.773 189.036 275.086C189.437 275.398 189.94 275.63 190.544 275.781L189.63 277.266C188.895 277.047 188.286 276.711 187.802 276.258C187.317 275.81 186.958 275.286 186.723 274.688C186.494 274.083 186.38 273.424 186.38 272.711V272.43H187.872V272.711Z" fill="white" fill-opacity="0.5"/>
<path d="M193.944 272.953H199.803V271.742H201.78V277.281H191.959V271.742H193.944V272.953ZM199.803 275.711V274.461H193.944V275.711H199.803ZM203.428 271.023H190.459V269.43H203.428V271.023ZM197.639 263.836C197.639 264.659 197.405 265.419 196.936 266.117C196.467 266.81 195.793 267.393 194.913 267.867C194.032 268.336 193.001 268.646 191.819 268.797L191.092 267.234C192.108 267.115 192.98 266.88 193.709 266.531C194.439 266.182 194.988 265.773 195.358 265.305C195.728 264.836 195.913 264.346 195.913 263.836V263.352H197.639V263.836ZM197.967 263.836C197.967 264.331 198.152 264.815 198.522 265.289C198.892 265.763 199.439 266.177 200.163 266.531C200.892 266.885 201.764 267.12 202.78 267.234L202.077 268.797C200.879 268.646 199.84 268.333 198.959 267.859C198.084 267.385 197.413 266.802 196.944 266.109C196.48 265.417 196.248 264.659 196.248 263.836V263.352H197.967V263.836Z" fill="white" fill-opacity="0.5"/>
<path d="M215.633 277.438H213.656V263.203H215.633V277.438ZM206.414 273.406H204.445V264.57H206.414V273.406ZM205.703 272.234C206.828 272.234 207.958 272.185 209.094 272.086C210.234 271.987 211.367 271.828 212.492 271.609L212.742 273.258C211.565 273.497 210.393 273.669 209.227 273.773C208.06 273.878 206.885 273.93 205.703 273.93H204.445V272.234H205.703Z" fill="white" fill-opacity="0.5"/>
<path d="M228.127 277.477H226.127V263.203H228.127V277.477ZM230.236 270.125H227.689V268.492H230.236V270.125ZM218.673 272.375C219.96 272.38 221.101 272.349 222.095 272.281C223.09 272.214 224.093 272.094 225.103 271.922L225.322 273.594C224.296 273.766 223.278 273.88 222.267 273.938C221.262 273.995 220.064 274.021 218.673 274.016H217.47V272.375H218.673ZM224.142 266.148H219.462V273.188H217.47V264.531H224.142V266.148Z" fill="white" fill-opacity="0.5"/>
<path d="M231.972 276.141C231.738 276.141 231.519 276.083 231.316 275.969C231.113 275.849 230.951 275.688 230.831 275.484C230.717 275.281 230.662 275.06 230.667 274.82C230.662 274.586 230.717 274.37 230.831 274.172C230.951 273.974 231.113 273.818 231.316 273.703C231.519 273.589 231.738 273.531 231.972 273.531C232.201 273.531 232.417 273.589 232.62 273.703C232.823 273.818 232.982 273.977 233.097 274.18C233.217 274.378 233.279 274.591 233.284 274.82C233.279 275.06 233.217 275.281 233.097 275.484C232.982 275.688 232.823 275.849 232.62 275.969C232.417 276.083 232.201 276.141 231.972 276.141Z" fill="white" fill-opacity="0.5"/>
<path d="M17.9688 295.758H15.9844V293.727H17.9688V295.758ZM24.0625 296.898H22.0547V287.234H24.0625V296.898ZM25.8828 292.938H23.3516V291.305H25.8828V292.938ZM12.6562 295.07C14.3021 295.07 15.8516 295.044 17.3047 294.992C18.763 294.94 20.1276 294.833 21.3984 294.672L21.5469 296.047C20.2083 296.281 18.8281 296.435 17.4062 296.508C15.9896 296.576 14.4323 296.609 12.7344 296.609L12.5391 295.07H12.6562ZM24.0625 301.438H22.0547V299H14.3359V297.461H24.0625V301.438ZM21.0391 289.719H12.8984V288.273H21.0391V289.719ZM16.9688 290.047C17.6615 290.047 18.2708 290.133 18.7969 290.305C19.3229 290.471 19.7292 290.716 20.0156 291.039C20.3021 291.357 20.4479 291.732 20.4531 292.164C20.4479 292.596 20.3021 292.974 20.0156 293.297C19.7292 293.615 19.3229 293.862 18.7969 294.039C18.2708 294.211 17.6615 294.297 16.9688 294.297C16.2708 294.297 15.6589 294.211 15.1328 294.039C14.6068 293.862 14.1979 293.615 13.9062 293.297C13.6198 292.974 13.4766 292.596 13.4766 292.164C13.4766 291.732 13.6198 291.357 13.9062 291.039C14.1979 290.716 14.6068 290.471 15.1328 290.305C15.6589 290.133 16.2708 290.047 16.9688 290.047ZM16.9688 291.375C16.6198 291.375 16.3281 291.404 16.0938 291.461C15.8646 291.513 15.6875 291.599 15.5625 291.719C15.4427 291.833 15.3828 291.982 15.3828 292.164C15.3828 292.336 15.4427 292.484 15.5625 292.609C15.6875 292.729 15.8672 292.823 16.1016 292.891C16.3411 292.953 16.6302 292.982 16.9688 292.977C17.3021 292.982 17.5859 292.953 17.8203 292.891C18.0547 292.823 18.2318 292.729 18.3516 292.609C18.4766 292.484 18.5391 292.336 18.5391 292.164C18.5391 291.982 18.4766 291.833 18.3516 291.719C18.2318 291.599 18.0547 291.513 17.8203 291.461C17.5911 291.404 17.3073 291.375 16.9688 291.375ZM17.9688 288.953H15.9844V287.109H17.9688V288.953Z" fill="white" fill-opacity="0.5"/>
<path d="M30.7828 289.727C30.7776 290.654 30.6266 291.518 30.3297 292.32C30.0328 293.117 29.5771 293.812 28.9625 294.406C28.3531 295 27.6031 295.44 26.7125 295.727L25.7125 294.156C26.4729 293.911 27.1109 293.56 27.6266 293.102C28.1422 292.638 28.5224 292.117 28.7672 291.539C29.0172 290.961 29.1448 290.357 29.15 289.727V288.797H30.7828V289.727ZM31.1656 289.719C31.1656 290.297 31.2828 290.846 31.5172 291.367C31.7516 291.883 32.1135 292.346 32.6031 292.758C33.0927 293.164 33.7047 293.477 34.4391 293.695L33.5016 295.25C32.6266 294.99 31.8948 294.586 31.3062 294.039C30.7177 293.487 30.275 292.844 29.9781 292.109C29.6865 291.37 29.5406 290.573 29.5406 289.719V288.797H31.1656V289.719ZM34.0016 289.758H26.2516V288.164H34.0016V289.758ZM37.1969 295.648H35.2047V287.203H37.1969V295.648ZM39.1187 292.141H36.6344V290.516H39.1187V292.141ZM32.5328 295.93C33.5172 295.93 34.3687 296.039 35.0875 296.258C35.8115 296.471 36.3661 296.784 36.7516 297.195C37.137 297.607 37.3297 298.099 37.3297 298.672C37.3297 299.245 37.137 299.737 36.7516 300.148C36.3661 300.565 35.8115 300.883 35.0875 301.102C34.3687 301.326 33.5172 301.438 32.5328 301.438C31.538 301.438 30.6734 301.326 29.9391 301.102C29.2047 300.883 28.6396 300.565 28.2437 300.148C27.8531 299.737 27.6578 299.245 27.6578 298.672C27.6578 298.099 27.8531 297.607 28.2437 297.195C28.6396 296.784 29.2021 296.471 29.9312 296.258C30.6656 296.039 31.5328 295.93 32.5328 295.93ZM32.5328 297.477C31.913 297.477 31.387 297.521 30.9547 297.609C30.5276 297.698 30.2047 297.833 29.9859 298.016C29.7672 298.193 29.6604 298.411 29.6656 298.672C29.6604 298.943 29.7672 299.169 29.9859 299.352C30.2047 299.529 30.5276 299.664 30.9547 299.758C31.3818 299.846 31.9078 299.891 32.5328 299.891C33.1526 299.891 33.6708 299.846 34.0875 299.758C34.5094 299.664 34.8271 299.529 35.0406 299.352C35.2594 299.169 35.3687 298.943 35.3687 298.672C35.3687 298.406 35.2594 298.185 35.0406 298.008C34.8271 297.831 34.5094 297.698 34.0875 297.609C33.6708 297.521 33.1526 297.477 32.5328 297.477Z" fill="white" fill-opacity="0.5"/>
<path d="M43.9719 291.086C43.9719 292.18 43.8156 293.237 43.5031 294.258C43.1958 295.273 42.7401 296.18 42.1359 296.977C41.537 297.773 40.8182 298.37 39.9797 298.766L38.8078 297.195C39.5734 296.836 40.2245 296.328 40.7609 295.672C41.3026 295.016 41.7089 294.292 41.9797 293.5C42.2505 292.708 42.3885 291.904 42.3937 291.086V289.43H43.9719V291.086ZM44.3937 291.086C44.3885 291.841 44.5187 292.591 44.7844 293.336C45.05 294.081 45.4432 294.766 45.9641 295.391C46.4901 296.01 47.1281 296.492 47.8781 296.836L46.7687 298.398C45.9302 298.018 45.2141 297.448 44.6203 296.688C44.0318 295.927 43.5839 295.062 43.2766 294.094C42.9693 293.12 42.8156 292.117 42.8156 291.086V289.43H44.3937V291.086ZM47.2609 290.219H39.3781V288.594H47.2609V290.219ZM50.3625 301.438H48.3625V287.203H50.3625V301.438ZM52.4719 294.312H49.925V292.648H52.4719V294.312Z" fill="white" fill-opacity="0.5"/>
<path d="M67.7641 289.805H56.0922V288.297H67.7641V289.805ZM61.9594 290.156C62.975 290.156 63.8396 290.234 64.5531 290.391C65.2667 290.547 65.8083 290.784 66.1781 291.102C66.5479 291.419 66.7328 291.802 66.7328 292.25C66.7328 292.927 66.3214 293.443 65.4984 293.797C64.6755 294.151 63.4958 294.326 61.9594 294.32C60.4177 294.326 59.2328 294.151 58.4047 293.797C57.5818 293.443 57.1703 292.927 57.1703 292.25C57.1703 291.802 57.3552 291.419 57.725 291.102C58.1 290.784 58.6443 290.547 59.3578 290.391C60.0714 290.234 60.9385 290.156 61.9594 290.156ZM61.9594 291.531C61.324 291.531 60.8031 291.557 60.3969 291.609C59.9958 291.661 59.6964 291.742 59.4984 291.852C59.3057 291.956 59.212 292.089 59.2172 292.25C59.212 292.417 59.3057 292.552 59.4984 292.656C59.6964 292.76 59.9932 292.839 60.3891 292.891C60.7901 292.943 61.3135 292.969 61.9594 292.969C62.6 292.969 63.1182 292.943 63.5141 292.891C63.9099 292.839 64.2042 292.76 64.3969 292.656C64.5948 292.552 64.6964 292.417 64.7016 292.25C64.6964 292.089 64.5948 291.956 64.3969 291.852C64.2042 291.742 63.9073 291.661 63.5062 291.609C63.1052 291.557 62.5896 291.531 61.9594 291.531ZM62.9516 289.289H60.9516V287.109H62.9516V289.289ZM68.4516 296.664H55.4828V295.094H68.4516V296.664ZM62.9516 295.812H60.9516V293.797H62.9516V295.812ZM66.8344 301.438H64.8344V298.969H56.8891V297.461H66.8344V301.438Z" fill="white" fill-opacity="0.5"/>
<path d="M81.6797 296.078H68.7109V294.492H81.6797V296.078ZM80.2031 301.195H70.2734V299.586H80.2031V301.195ZM72.2656 300.102H70.2734V297.031H72.2656V300.102ZM75.1875 287.656C76.2188 287.651 77.125 287.766 77.9062 288C78.6875 288.229 79.2891 288.565 79.7109 289.008C80.138 289.451 80.3516 289.969 80.3516 290.562C80.3516 291.161 80.138 291.682 79.7109 292.125C79.2891 292.562 78.6875 292.904 77.9062 293.148C77.125 293.388 76.2188 293.508 75.1875 293.508C74.1458 293.508 73.2344 293.388 72.4531 293.148C71.6719 292.904 71.0677 292.562 70.6406 292.125C70.2135 291.682 70 291.161 70 290.562C70 289.969 70.2135 289.451 70.6406 289.008C71.0677 288.565 71.6719 288.229 72.4531 288C73.2344 287.766 74.1458 287.651 75.1875 287.656ZM75.1875 289.219C74.5312 289.224 73.9688 289.279 73.5 289.383C73.0365 289.482 72.6823 289.633 72.4375 289.836C72.1927 290.034 72.0703 290.276 72.0703 290.562C72.0703 290.854 72.1927 291.099 72.4375 291.297C72.6823 291.49 73.0339 291.638 73.4922 291.742C73.9557 291.841 74.5208 291.888 75.1875 291.883C75.849 291.888 76.4115 291.841 76.875 291.742C77.3438 291.638 77.6979 291.49 77.9375 291.297C78.1771 291.099 78.2969 290.854 78.2969 290.562C78.2969 290.276 78.1745 290.034 77.9297 289.836C77.6849 289.633 77.3307 289.482 76.8672 289.383C76.4036 289.279 75.8438 289.224 75.1875 289.219Z" fill="white" fill-opacity="0.5"/>
<path d="M89.9641 294.594H87.9641V291.984H89.9641V294.594ZM95.0188 294.594H93.0266V291.984H95.0188V294.594ZM98.0109 295.555H85.0422V293.961H98.0109V295.555ZM91.5031 296.289C92.524 296.289 93.4068 296.388 94.1516 296.586C94.8964 296.784 95.4641 297.076 95.8547 297.461C96.2505 297.846 96.451 298.31 96.4563 298.852C96.451 299.404 96.2505 299.87 95.8547 300.25C95.4641 300.635 94.8964 300.927 94.1516 301.125C93.412 301.323 92.5292 301.422 91.5031 301.422C90.4615 301.422 89.5682 301.323 88.8234 301.125C88.0787 300.927 87.5083 300.635 87.1125 300.25C86.7167 299.87 86.5188 299.404 86.5188 298.852C86.5188 298.31 86.7167 297.846 87.1125 297.461C87.5083 297.076 88.0787 296.784 88.8234 296.586C89.5682 296.388 90.4615 296.289 91.5031 296.289ZM91.5031 297.797C90.8417 297.797 90.2922 297.836 89.8547 297.914C89.4224 297.987 89.0943 298.104 88.8703 298.266C88.6516 298.422 88.5448 298.617 88.55 298.852C88.5448 299.091 88.6516 299.292 88.8703 299.453C89.0943 299.615 89.4224 299.737 89.8547 299.82C90.2922 299.898 90.8417 299.938 91.5031 299.938C92.149 299.938 92.6906 299.898 93.1281 299.82C93.5656 299.737 93.8938 299.615 94.1125 299.453C94.3365 299.292 94.4484 299.091 94.4484 298.852C94.4484 298.617 94.3365 298.422 94.1125 298.266C93.8938 298.104 93.5656 297.987 93.1281 297.914C92.6958 297.836 92.1542 297.797 91.5031 297.797ZM91.5188 287.422C92.5656 287.422 93.4771 287.531 94.2531 287.75C95.0292 287.969 95.6281 288.286 96.05 288.703C96.4719 289.115 96.6828 289.602 96.6828 290.164C96.6828 290.727 96.4719 291.211 96.05 291.617C95.6333 292.018 95.0344 292.326 94.2531 292.539C93.4771 292.747 92.5656 292.852 91.5188 292.852C90.4667 292.852 89.55 292.747 88.7688 292.539C87.9875 292.326 87.3859 292.018 86.9641 291.617C86.5422 291.211 86.3313 290.727 86.3313 290.164C86.3313 289.602 86.5422 289.115 86.9641 288.703C87.3859 288.286 87.9875 287.969 88.7688 287.75C89.55 287.531 90.4667 287.422 91.5188 287.422ZM91.5188 288.953C90.8469 288.953 90.2792 289 89.8156 289.094C89.3521 289.182 89.0005 289.318 88.7609 289.5C88.5214 289.682 88.4016 289.904 88.4016 290.164C88.4016 290.424 88.5214 290.643 88.7609 290.82C89.0005 290.997 89.3521 291.13 89.8156 291.219C90.2792 291.307 90.8469 291.352 91.5188 291.352C92.1854 291.352 92.7505 291.307 93.2141 291.219C93.6776 291.13 94.0292 290.997 94.2688 290.82C94.5083 290.643 94.6281 290.424 94.6281 290.164C94.6281 289.904 94.5083 289.682 94.2688 289.5C94.0292 289.318 93.675 289.182 93.2063 289.094C92.7427 289 92.1802 288.953 91.5188 288.953Z" fill="white" fill-opacity="0.5"/>
<path d="M111.481 290.781H108.95V289.141H111.481V290.781ZM111.481 293.789H108.95V292.141H111.481V293.789ZM109.544 295.805H107.552V287.234H109.544V295.805ZM99.9734 293.555C101.458 293.56 102.679 293.534 103.637 293.477C104.596 293.419 105.554 293.307 106.512 293.141L106.723 294.727C105.755 294.909 104.773 295.031 103.778 295.094C102.783 295.156 101.515 295.188 99.9734 295.188H98.7781V293.555H99.9734ZM105.302 292.312H100.77V294.555H98.7781V290.82H103.356V289.648H98.7547V288.07H105.302V292.312ZM104.856 296.023C105.841 296.023 106.695 296.133 107.419 296.352C108.148 296.57 108.705 296.888 109.091 297.305C109.481 297.716 109.677 298.201 109.677 298.758C109.677 299.315 109.481 299.792 109.091 300.188C108.705 300.589 108.148 300.893 107.419 301.102C106.695 301.315 105.841 301.422 104.856 301.422C103.856 301.422 102.992 301.315 102.262 301.102C101.533 300.893 100.971 300.589 100.575 300.188C100.184 299.792 99.9891 299.315 99.9891 298.758C99.9891 298.201 100.184 297.716 100.575 297.305C100.971 296.888 101.533 296.57 102.262 296.352C102.992 296.133 103.856 296.023 104.856 296.023ZM104.856 297.57C104.221 297.57 103.687 297.615 103.255 297.703C102.822 297.792 102.494 297.924 102.27 298.102C102.052 298.279 101.945 298.497 101.95 298.758C101.945 299.018 102.052 299.234 102.27 299.406C102.494 299.578 102.82 299.711 103.247 299.805C103.679 299.893 104.216 299.938 104.856 299.938C105.481 299.938 106.005 299.893 106.427 299.805C106.854 299.711 107.174 299.581 107.387 299.414C107.606 299.242 107.716 299.023 107.716 298.758C107.716 298.497 107.606 298.279 107.387 298.102C107.174 297.924 106.854 297.792 106.427 297.703C106.005 297.615 105.481 297.57 104.856 297.57Z" fill="white" fill-opacity="0.5"/>
<path d="M119.875 295.758H117.891V293.727H119.875V295.758ZM125.969 296.898H123.961V287.234H125.969V296.898ZM127.789 292.938H125.258V291.305H127.789V292.938ZM114.562 295.07C116.208 295.07 117.758 295.044 119.211 294.992C120.669 294.94 122.034 294.833 123.305 294.672L123.453 296.047C122.115 296.281 120.734 296.435 119.312 296.508C117.896 296.576 116.339 296.609 114.641 296.609L114.445 295.07H114.562ZM125.969 301.438H123.961V299H116.242V297.461H125.969V301.438ZM122.945 289.719H114.805V288.273H122.945V289.719ZM118.875 290.047C119.568 290.047 120.177 290.133 120.703 290.305C121.229 290.471 121.635 290.716 121.922 291.039C122.208 291.357 122.354 291.732 122.359 292.164C122.354 292.596 122.208 292.974 121.922 293.297C121.635 293.615 121.229 293.862 120.703 294.039C120.177 294.211 119.568 294.297 118.875 294.297C118.177 294.297 117.565 294.211 117.039 294.039C116.513 293.862 116.104 293.615 115.812 293.297C115.526 292.974 115.383 292.596 115.383 292.164C115.383 291.732 115.526 291.357 115.812 291.039C116.104 290.716 116.513 290.471 117.039 290.305C117.565 290.133 118.177 290.047 118.875 290.047ZM118.875 291.375C118.526 291.375 118.234 291.404 118 291.461C117.771 291.513 117.594 291.599 117.469 291.719C117.349 291.833 117.289 291.982 117.289 292.164C117.289 292.336 117.349 292.484 117.469 292.609C117.594 292.729 117.773 292.823 118.008 292.891C118.247 292.953 118.536 292.982 118.875 292.977C119.208 292.982 119.492 292.953 119.727 292.891C119.961 292.823 120.138 292.729 120.258 292.609C120.383 292.484 120.445 292.336 120.445 292.164C120.445 291.982 120.383 291.833 120.258 291.719C120.138 291.599 119.961 291.513 119.727 291.461C119.497 291.404 119.214 291.375 118.875 291.375ZM119.875 288.953H117.891V287.109H119.875V288.953Z" fill="white" fill-opacity="0.5"/>
<path d="M139.72 297.453H137.728V287.234H139.72V297.453ZM140.111 301.195H130.197V299.586H140.111V301.195ZM132.213 300.242H130.197V296.43H132.213V300.242ZM131.931 288.133C132.65 288.133 133.306 288.286 133.9 288.594C134.499 288.901 134.968 289.328 135.306 289.875C135.65 290.422 135.822 291.034 135.822 291.711C135.822 292.404 135.65 293.026 135.306 293.578C134.968 294.125 134.502 294.555 133.908 294.867C133.314 295.174 132.655 295.328 131.931 295.328C131.207 295.328 130.548 295.174 129.955 294.867C129.366 294.555 128.9 294.125 128.556 293.578C128.213 293.026 128.041 292.404 128.041 291.711C128.041 291.034 128.213 290.422 128.556 289.875C128.9 289.328 129.366 288.901 129.955 288.594C130.548 288.286 131.207 288.133 131.931 288.133ZM131.931 289.867C131.561 289.867 131.228 289.943 130.931 290.094C130.64 290.24 130.408 290.453 130.236 290.734C130.069 291.01 129.986 291.336 129.986 291.711C129.986 292.102 130.069 292.438 130.236 292.719C130.408 293 130.64 293.216 130.931 293.367C131.228 293.518 131.561 293.591 131.931 293.586C132.296 293.591 132.621 293.518 132.908 293.367C133.199 293.216 133.429 293 133.595 292.719C133.762 292.438 133.845 292.102 133.845 291.711C133.845 291.336 133.762 291.01 133.595 290.734C133.429 290.453 133.199 290.24 132.908 290.094C132.616 289.943 132.291 289.867 131.931 289.867Z" fill="white" fill-opacity="0.5"/>
<path d="M156.442 290.281H144.77V288.688H156.442V290.281ZM157.161 298.031H144.161V296.414H157.161V298.031ZM151.614 301.453H149.653V297.797H151.614V301.453ZM150.637 290.844C151.658 290.844 152.536 290.938 153.27 291.125C154.005 291.307 154.567 291.583 154.958 291.953C155.348 292.323 155.544 292.768 155.544 293.289C155.544 293.805 155.346 294.242 154.95 294.602C154.559 294.961 153.997 295.237 153.262 295.43C152.533 295.617 151.658 295.711 150.637 295.711C149.617 295.711 148.739 295.617 148.005 295.43C147.27 295.237 146.705 294.961 146.309 294.602C145.919 294.242 145.726 293.805 145.731 293.289C145.726 292.768 145.919 292.323 146.309 291.953C146.705 291.583 147.268 291.307 147.997 291.125C148.731 290.938 149.611 290.844 150.637 290.844ZM150.637 292.32C149.997 292.32 149.466 292.354 149.044 292.422C148.627 292.49 148.315 292.596 148.106 292.742C147.898 292.888 147.796 293.07 147.802 293.289C147.796 293.497 147.898 293.672 148.106 293.812C148.315 293.953 148.627 294.06 149.044 294.133C149.466 294.201 149.997 294.237 150.637 294.242C151.273 294.237 151.799 294.201 152.216 294.133C152.632 294.06 152.945 293.953 153.153 293.812C153.361 293.672 153.468 293.497 153.473 293.289C153.468 293.07 153.361 292.888 153.153 292.742C152.945 292.596 152.632 292.49 152.216 292.422C151.799 292.354 151.273 292.32 150.637 292.32ZM151.614 289.758H149.653V287.188H151.614V289.758Z" fill="white" fill-opacity="0.5"/>
<path d="M171.703 301.477H169.703V287.203H171.703V301.477ZM173.812 294.125H171.266V292.492H173.812V294.125ZM162.25 296.375C163.536 296.38 164.677 296.349 165.672 296.281C166.667 296.214 167.669 296.094 168.68 295.922L168.898 297.594C167.872 297.766 166.854 297.88 165.844 297.938C164.839 297.995 163.641 298.021 162.25 298.016H161.047V296.375H162.25ZM167.719 290.148H163.039V297.188H161.047V288.531H167.719V290.148Z" fill="white" fill-opacity="0.5"/>
<path d="M178.869 290.43C178.869 291.68 178.715 292.844 178.408 293.922C178.106 295 177.645 295.951 177.025 296.773C176.41 297.591 175.647 298.211 174.736 298.633L173.525 296.969C174.327 296.63 175.007 296.128 175.564 295.461C176.121 294.789 176.535 294.023 176.806 293.164C177.082 292.299 177.223 291.388 177.228 290.43V288.305H178.869V290.43ZM179.252 290.43C179.246 291.336 179.379 292.201 179.65 293.023C179.921 293.841 180.324 294.573 180.861 295.219C181.403 295.865 182.064 296.352 182.845 296.68L181.673 298.281C180.783 297.875 180.033 297.281 179.423 296.5C178.819 295.714 178.364 294.805 178.056 293.773C177.754 292.737 177.606 291.622 177.611 290.43V288.305H179.252V290.43ZM185.619 301.477H183.595V287.203H185.619V301.477Z" fill="white" fill-opacity="0.5"/>
<path d="M200.887 291.969H197.294V290.375H200.887V291.969ZM194.012 287.82C194.71 287.82 195.346 287.966 195.919 288.258C196.492 288.544 196.942 288.945 197.27 289.461C197.604 289.971 197.773 290.547 197.778 291.188C197.773 291.839 197.604 292.422 197.27 292.938C196.942 293.453 196.492 293.859 195.919 294.156C195.346 294.448 194.71 294.594 194.012 294.594C193.289 294.594 192.637 294.448 192.059 294.156C191.486 293.859 191.036 293.453 190.708 292.938C190.385 292.422 190.223 291.839 190.223 291.188C190.223 290.547 190.385 289.971 190.708 289.461C191.036 288.945 191.486 288.544 192.059 288.258C192.637 287.966 193.289 287.82 194.012 287.82ZM194.012 289.484C193.643 289.479 193.315 289.544 193.028 289.68C192.742 289.815 192.518 290.013 192.356 290.273C192.195 290.534 192.114 290.839 192.114 291.188C192.114 291.536 192.195 291.841 192.356 292.102C192.518 292.362 192.742 292.565 193.028 292.711C193.315 292.852 193.643 292.924 194.012 292.93C194.372 292.924 194.692 292.852 194.973 292.711C195.26 292.565 195.481 292.362 195.637 292.102C195.794 291.841 195.872 291.536 195.872 291.188C195.872 290.839 195.794 290.534 195.637 290.273C195.481 290.013 195.26 289.815 194.973 289.68C194.692 289.544 194.372 289.479 194.012 289.484ZM202.028 294.867H200.044V287.203H202.028V294.867ZM194.512 296.852H200.044V295.484H202.028V301.281H192.544V295.484H194.512V296.852ZM200.044 299.672V298.391H194.512V299.672H200.044Z" fill="white" fill-opacity="0.5"/>
<path d="M216.28 299.859H203.28V298.227H216.28V299.859ZM210.733 298.906H208.772V295.531H210.733V298.906ZM214.78 292.852H206.764V295.281H204.78V291.289H212.811V289.742H204.756V288.141H214.78V292.852ZM215.116 296.07H204.78V294.453H215.116V296.07Z" fill="white" fill-opacity="0.5"/>
<path d="M228.086 295.398H218.039V293.805H228.086V295.398ZM229.508 299.711H216.508V298.07H229.508V299.711ZM227.984 290.016H220.008V294.469H218.039V288.406H227.984V290.016Z" fill="white" fill-opacity="0.5"/>
<path d="M236.587 290.969H229.705V289.383H236.587V290.969ZM233.173 291.609C233.772 291.609 234.309 291.753 234.783 292.039C235.262 292.326 235.634 292.727 235.9 293.242C236.166 293.753 236.298 294.333 236.298 294.984C236.298 295.641 236.166 296.224 235.9 296.734C235.634 297.245 235.262 297.648 234.783 297.945C234.309 298.237 233.772 298.383 233.173 298.383C232.58 298.383 232.043 298.237 231.564 297.945C231.085 297.648 230.712 297.245 230.447 296.734C230.181 296.219 230.048 295.635 230.048 294.984C230.048 294.339 230.181 293.76 230.447 293.25C230.718 292.734 231.09 292.333 231.564 292.047C232.043 291.755 232.58 291.609 233.173 291.609ZM233.173 293.266C232.897 293.266 232.655 293.333 232.447 293.469C232.244 293.604 232.085 293.802 231.97 294.062C231.856 294.323 231.801 294.63 231.806 294.984C231.801 295.339 231.856 295.643 231.97 295.898C232.085 296.154 232.244 296.349 232.447 296.484C232.655 296.62 232.895 296.688 233.166 296.688C233.442 296.688 233.684 296.62 233.892 296.484C234.101 296.349 234.262 296.154 234.377 295.898C234.496 295.643 234.556 295.339 234.556 294.984C234.556 294.63 234.496 294.323 234.377 294.062C234.262 293.802 234.098 293.604 233.884 293.469C233.676 293.333 233.439 293.266 233.173 293.266ZM242.025 301.438H240.127V287.203H242.025V301.438ZM240.759 294.594H238.369V293.008H240.759V294.594ZM238.978 300.828H237.111V287.5H238.978V300.828ZM234.15 290.383H232.189V287.609H234.15V290.383Z" fill="white" fill-opacity="0.5"/>
<path d="M250.027 289.227C250.027 290.07 249.8 290.841 249.347 291.539C248.899 292.232 248.245 292.815 247.386 293.289C246.527 293.758 245.508 294.073 244.331 294.234L243.589 292.68C244.584 292.56 245.435 292.323 246.144 291.969C246.857 291.609 247.394 291.193 247.753 290.719C248.113 290.24 248.292 289.742 248.292 289.227V288.797H250.027V289.227ZM250.597 289.227C250.597 289.742 250.774 290.24 251.128 290.719C251.488 291.193 252.021 291.609 252.73 291.969C253.443 292.323 254.305 292.56 255.316 292.68L254.597 294.234C253.409 294.073 252.383 293.758 251.519 293.289C250.654 292.815 249.995 292.232 249.542 291.539C249.089 290.841 248.863 290.07 248.863 289.227V288.797H250.597V289.227ZM250.394 301.445H248.417V296.203H250.394V301.445ZM255.933 296.656H242.964V295.07H255.933V296.656ZM254.761 289.523H244.128V287.969H254.761V289.523Z" fill="white" fill-opacity="0.5"/>
<path d="M264.255 293.648H261.833V292.016H264.255V293.648ZM260.341 290.891C260.341 292.005 260.226 293.06 259.997 294.055C259.773 295.044 259.421 295.938 258.942 296.734C258.468 297.526 257.867 298.143 257.137 298.586L255.919 297.102C256.591 296.69 257.143 296.156 257.575 295.5C258.007 294.839 258.32 294.12 258.512 293.344C258.71 292.568 258.809 291.75 258.809 290.891V288.438H260.341V290.891ZM260.739 290.797C260.739 291.641 260.822 292.43 260.989 293.164C261.156 293.893 261.432 294.57 261.817 295.195C262.203 295.815 262.705 296.326 263.325 296.727L262.247 298.258C261.523 297.82 260.937 297.216 260.489 296.445C260.041 295.674 259.721 294.818 259.528 293.875C259.335 292.927 259.242 291.901 259.247 290.797V288.438H260.739V290.797ZM268.513 301.438H266.598V287.203H268.513V301.438ZM265.536 300.781H263.669V287.422H265.536V300.781Z" fill="white" fill-opacity="0.5"/>
<path d="M274.295 298.445H272.319V294.453H274.295V298.445ZM279.53 298.445H277.522V294.453H279.53V298.445ZM282.42 299.773H269.42V298.141H282.42V299.773ZM275.897 287.906C276.923 287.906 277.84 288.065 278.647 288.383C279.459 288.701 280.095 289.148 280.553 289.727C281.017 290.305 281.248 290.969 281.248 291.719C281.248 292.479 281.019 293.146 280.561 293.719C280.103 294.292 279.467 294.737 278.655 295.055C277.842 295.372 276.923 295.531 275.897 295.531C274.871 295.531 273.952 295.372 273.139 295.055C272.332 294.737 271.699 294.292 271.241 293.719C270.782 293.146 270.553 292.479 270.553 291.719C270.553 290.969 270.782 290.305 271.241 289.727C271.699 289.148 272.332 288.701 273.139 288.383C273.952 288.065 274.871 287.906 275.897 287.906ZM275.897 289.484C275.215 289.479 274.621 289.565 274.116 289.742C273.61 289.919 273.217 290.177 272.936 290.516C272.66 290.854 272.522 291.255 272.522 291.719C272.522 292.182 272.66 292.586 272.936 292.93C273.217 293.268 273.61 293.529 274.116 293.711C274.626 293.893 275.22 293.987 275.897 293.992C276.569 293.987 277.16 293.893 277.67 293.711C278.181 293.523 278.577 293.26 278.858 292.922C279.139 292.583 279.28 292.182 279.28 291.719C279.28 291.255 279.139 290.854 278.858 290.516C278.577 290.177 278.181 289.919 277.67 289.742C277.16 289.565 276.569 289.479 275.897 289.484Z" fill="white" fill-opacity="0.5"/>
<path d="M284.477 300.141C284.242 300.141 284.023 300.083 283.82 299.969C283.617 299.849 283.456 299.688 283.336 299.484C283.221 299.281 283.167 299.06 283.172 298.82C283.167 298.586 283.221 298.37 283.336 298.172C283.456 297.974 283.617 297.818 283.82 297.703C284.023 297.589 284.242 297.531 284.477 297.531C284.706 297.531 284.922 297.589 285.125 297.703C285.328 297.818 285.487 297.977 285.602 298.18C285.721 298.378 285.784 298.591 285.789 298.82C285.784 299.06 285.721 299.281 285.602 299.484C285.487 299.688 285.328 299.849 285.125 299.969C284.922 300.083 284.706 300.141 284.477 300.141Z" fill="white" fill-opacity="0.5"/>
</svg>
