<svg width="18" height="18" viewBox="0 0 18 18" fill="none" xmlns="http://www.w3.org/2000/svg">
<path fill-rule="evenodd" clip-rule="evenodd" d="M1.5 8.99963C1.5 4.86038 4.86 1.49963 9 1.49963C13.1475 1.49963 16.5 4.86038 16.5 8.99963C16.5 13.1404 13.1475 16.4996 9 16.4996C4.86 16.4996 1.5 13.1404 1.5 8.99963ZM8.34 6.15713C8.34 5.79788 8.64 5.49713 9 5.49713C9.36 5.49713 9.6525 5.79788 9.6525 6.15713V9.47213C9.6525 9.83288 9.36 10.1246 9 10.1246C8.64 10.1246 8.34 9.83288 8.34 9.47213V6.15713ZM9.0075 12.5104C8.64 12.5104 8.3475 12.2104 8.3475 11.8504C8.3475 11.4904 8.64 11.1979 9 11.1979C9.3675 11.1979 9.66 11.4904 9.66 11.8504C9.66 12.2104 9.3675 12.5104 9.0075 12.5104Z" fill="#A3A7B5"/>
</svg>
