<svg width="24" height="24" viewBox="0 0 24 24" fill="none" xmlns="http://www.w3.org/2000/svg">
<path d="M20.2496 2.99951H8.24961C8.0507 2.99952 7.85994 3.07854 7.71929 3.21919C7.57864 3.35984 7.49962 3.5506 7.49961 3.74951V7.49961H3.74951C3.5506 7.49962 3.35984 7.57864 3.21919 7.71929C3.07854 7.85994 2.99952 8.0507 2.99951 8.24961V20.2496C2.99952 20.4485 3.07854 20.6393 3.21919 20.7799C3.35984 20.9206 3.5506 20.9996 3.74951 20.9996H15.7495C15.9484 20.9996 16.1392 20.9206 16.2798 20.7799C16.4205 20.6393 16.4995 20.4485 16.4995 20.2496V16.4995H20.2496C20.4485 16.4995 20.6393 16.4205 20.7799 16.2798C20.9206 16.1392 20.9996 15.9484 20.9996 15.7495V3.74951C20.9996 3.5506 20.9206 3.35984 20.7799 3.21919C20.6393 3.07854 20.4485 2.99952 20.2496 2.99951ZM19.4996 14.9995H16.4995V8.24961C16.4995 8.0507 16.4205 7.85994 16.2798 7.71929C16.1392 7.57864 15.9484 7.49962 15.7495 7.49961H8.9996V4.49951H19.4996V14.9995Z" fill="#7F8392"/>
</svg>
