<svg width="14" height="14" viewBox="0 0 14 14" fill="none" xmlns="http://www.w3.org/2000/svg">
<path fill-rule="evenodd" clip-rule="evenodd" d="M7.29167 2.33341C6.00226 2.33341 4.83592 2.85558 3.99069 3.70139C3.54869 4.1437 3.04676 4.74333 2.64296 5.25008H4.95833C5.2805 5.25008 5.54167 5.51125 5.54167 5.83341C5.54167 6.15558 5.2805 6.41675 4.95833 6.41675H1.45833C1.13617 6.41675 0.875 6.15558 0.875 5.83341V2.33341C0.875 2.01125 1.13617 1.75008 1.45833 1.75008C1.7805 1.75008 2.04167 2.01125 2.04167 2.33341V4.13851C2.39276 3.71153 2.79233 3.2501 3.16545 2.87672C4.22055 1.82089 5.68027 1.16675 7.29167 1.16675C10.5133 1.16675 13.125 3.77842 13.125 7.00008C13.125 10.2217 10.5133 12.8334 7.29167 12.8334C5.2621 12.8334 3.47499 11.7964 2.43091 10.2261C2.25253 9.95785 2.32541 9.59577 2.59369 9.41739C2.86197 9.23902 3.22405 9.3119 3.40243 9.58018C4.23946 10.8391 5.66903 11.6667 7.29167 11.6667C9.86899 11.6667 11.9583 9.57741 11.9583 7.00008C11.9583 4.42275 9.86899 2.33341 7.29167 2.33341Z" fill="#505361"/>
</svg>
