<svg width="14" height="14" viewBox="0 0 14 14" fill="none" xmlns="http://www.w3.org/2000/svg">
<path fill-rule="evenodd" clip-rule="evenodd" d="M11.8342 3.05775C12.0611 3.05775 12.25 3.24616 12.25 3.48591V3.70757C12.25 3.94149 12.0611 4.13574 11.8342 4.13574H2.16641C1.93892 4.13574 1.75 3.94149 1.75 3.70757V3.48591C1.75 3.24616 1.93892 3.05775 2.16641 3.05775H3.86725C4.21275 3.05775 4.51343 2.81217 4.59115 2.46567L4.68022 2.06784C4.81865 1.52593 5.27421 1.16602 5.79557 1.16602H8.20442C8.72012 1.16602 9.18079 1.52593 9.31411 2.03926L9.40942 2.46509C9.48657 2.81217 9.78725 3.05775 10.1333 3.05775H11.8342ZM10.9701 11.1609C11.1477 9.50604 11.4585 5.57442 11.4585 5.53475C11.4699 5.41458 11.4307 5.30083 11.353 5.20925C11.2696 5.1235 11.1641 5.07275 11.0478 5.07275H2.95665C2.83979 5.07275 2.72859 5.1235 2.65144 5.20925C2.57314 5.30083 2.53457 5.41458 2.54024 5.53475C2.54128 5.54204 2.55244 5.68053 2.57109 5.91206C2.65394 6.94061 2.8847 9.80536 3.03381 11.1609C3.13933 12.1596 3.79459 12.7873 4.74372 12.81C5.47613 12.8269 6.23067 12.8328 7.00223 12.8328C7.72897 12.8328 8.46706 12.8269 9.22216 12.81C10.2042 12.7931 10.8589 12.1765 10.9701 11.1609ZM5.16889 9.84545C4.96591 10.0484 4.96591 10.3775 5.16889 10.5805C5.37187 10.7835 5.70096 10.7835 5.90394 10.5805L7 9.48445L8.09603 10.5805C8.29901 10.7835 8.6281 10.7835 8.83108 10.5805C9.03406 10.3775 9.03406 10.0484 8.83108 9.84543L7.73505 8.74939L8.83106 7.65339C9.03404 7.45041 9.03404 7.12131 8.83106 6.91833C8.62808 6.71535 8.29898 6.71535 8.096 6.91833L7 8.01434L5.90397 6.91831C5.70099 6.71533 5.37189 6.71533 5.16891 6.91831C4.96593 7.12129 4.96593 7.45038 5.16891 7.65336L6.26494 8.74939L5.16889 9.84545Z" fill="white"/>
</svg>
