<svg width="1920" height="1080" viewBox="0 0 1920 1080" fill="none" xmlns="http://www.w3.org/2000/svg">
<g clip-path="url(#clip0_15192_134906)">
<g clip-path="url(#clip1_15192_134906)">
<path d="M761.147 717.426L723.287 694.706C720.15 692.783 718.369 689.281 718.656 685.63C719.041 680.971 719.236 676.261 719.236 671.505C719.236 662.669 718.61 654.022 717.26 645.615C716.634 641.678 718.415 637.786 721.839 635.766L761.382 611.987C765.628 609.492 767.22 604.112 764.995 599.643L746.379 561.889C744.259 557.614 739.288 555.645 734.807 557.23L694.827 571.686C690.966 573.174 686.582 571.881 683.973 568.516C672.975 554.346 659.714 541.956 644.717 531.821C641.104 529.371 639.603 524.661 641.104 520.581L649.975 496.373C651.612 491.761 649.59 486.576 645.154 484.367L607.497 466.013C606.727 465.63 605.951 465.337 605.136 465.195C601.274 464.376 597.178 466.104 595.103 469.612L578.033 497.757L573.884 504.625C566.122 503.52 558.111 502.942 550.062 502.942C539.214 502.942 528.556 503.949 518.327 505.872C514.42 506.593 510.467 504.91 508.439 501.5L489.241 469.762C486.586 465.441 481.094 463.804 476.561 466.065L447.579 480.235L439.281 484.322C434.748 486.531 432.576 491.813 434.311 496.523L446.418 529.813C447.866 533.659 446.705 537.98 443.521 540.475C434.115 548.109 425.531 556.711 418.01 566.125C417.286 566.891 416.705 567.665 416.079 568.477C415.883 568.762 415.642 569.003 415.401 569.243C412.746 572.076 408.649 572.992 404.983 571.647L365.487 557.38C365.05 557.191 364.573 557.094 364.136 556.997C359.896 556.132 355.454 558.244 353.478 562.181L335.063 599.545C332.845 604.06 334.437 609.492 338.775 612.13L378.272 635.811C381.651 637.78 383.386 641.626 382.76 645.466C381.455 653.918 380.783 662.611 380.783 671.499C380.783 676.209 380.979 680.867 381.364 685.48C381.651 689.229 379.818 692.828 376.589 694.751L338.586 717.614C334.391 720.109 332.8 725.443 334.965 729.861L353.439 767.186C355.656 771.701 360.914 773.865 365.734 772.13L397.371 760.696C401.618 759.156 406.295 760.696 408.799 764.392C418.493 779.043 430.456 792.056 444.148 803.062C447.429 805.609 448.681 810.027 447.233 813.964L434.311 849.411C432.576 854.167 434.748 859.449 439.281 861.71L476.658 880.012C481.146 882.221 486.593 880.59 489.098 876.361L490.109 874.73L509.932 842.018C512.052 838.51 516.057 836.736 520.108 837.457H520.154C529.847 839.185 539.827 840.101 550.055 840.101C555.502 840.101 560.857 839.815 566.213 839.335C569.924 838.951 573.493 840.725 575.423 843.896L594.908 876.127C597.563 880.545 603.205 882.182 607.784 879.921L645.109 861.619C646.166 861.093 647.085 860.372 647.855 859.599C650.314 857.006 651.227 853.115 649.975 849.606L640.23 823.047C639.075 819.779 639.747 816.128 641.919 813.535C642.5 812.86 643.171 812.236 643.948 811.71C662.754 799.223 678.813 783.13 691.305 764.347C693.379 761.131 697.234 759.591 700.952 760.215C701.481 760.312 702.016 760.455 702.544 760.65L734.52 772.228C739.151 773.91 744.311 771.844 746.529 767.426L746.959 766.562L764.95 730.153C767.168 725.541 765.53 720.064 761.14 717.426H761.147ZM485.947 652.599C487.284 647.863 489.117 643.055 491.511 638.254C496.09 629.1 507.395 617.769 516.625 613.241C517.61 612.747 518.595 612.292 519.586 611.837C579.95 584.829 638.168 643.861 608.9 704.023C605.057 711.877 596.571 721.103 588.293 726.827C586.356 728.126 584.458 729.283 582.657 730.121C574.243 734.188 565.861 736.579 557.687 737.488C511.126 742.647 472.81 700.027 485.947 652.599Z" fill="#B3A6D8"/>
</g>
<path d="M1624.73 157.303L1574.78 55.0782L1425.4 -99.0996L1136.25 54.7937L1080.48 422.909L1329.37 467.512L1559.68 514.79L1624.73 157.303Z" fill="#AC99E1"/>
<path fill-rule="evenodd" clip-rule="evenodd" d="M1273.67 913.736C1277.55 844.168 1319.99 817.736 1319.99 817.736L1320.08 817.704C1365.71 770.242 1407.57 819.598 1421.62 839.537C1424.97 844.333 1428.63 848.895 1432.6 853.222C1473.8 898.151 1487.93 990.529 1492.63 1042.5C1495.74 1076.61 1484.09 1107.76 1460.34 1123.79C1413.67 1155.41 1361.25 1108.19 1361.25 1108.19C1350.45 1100.39 1341.11 1092.34 1333.02 1084.25C1333.89 1091.53 1334.6 1098.37 1335.16 1104.63C1338.27 1138.75 1326.62 1169.89 1302.87 1185.92C1256.2 1217.55 1203.78 1170.32 1203.78 1170.32C1197.88 1166.07 1192.43 1161.73 1187.37 1157.36C1187.55 1159.2 1187.72 1160.99 1187.87 1162.74C1190.99 1196.86 1179.33 1228 1155.58 1244.03C1108.91 1275.65 1056.49 1228.43 1056.49 1228.43C990.472 1180.75 978.753 1123.48 976.692 1106.67C976.169 1102.81 975.47 1099.01 974.638 1095.13C948.674 979.429 1015.23 937.977 1015.23 937.977L1015.32 937.945C1060.95 890.483 1102.81 939.839 1116.86 959.778C1117.01 959.993 1117.16 960.206 1117.31 960.419C1117.43 960.597 1117.56 960.774 1117.69 960.95C1126.2 902.489 1162.52 879.87 1162.52 879.87L1162.61 879.838C1208.24 832.376 1250.1 881.732 1264.15 901.671C1267.09 905.873 1270.26 909.895 1273.67 913.736Z" fill="#D99A9A"/>
</g>
<defs>
<clipPath id="clip0_15192_134906">
<rect width="1920" height="1080" fill="white"/>
</clipPath>
<clipPath id="clip1_15192_134906">
<rect width="432" height="416" fill="white" transform="translate(334 465)"/>
</clipPath>
</defs>
</svg>
