<svg width="25" height="24" viewBox="0 0 25 24" fill="none" xmlns="http://www.w3.org/2000/svg">
<path fill-rule="evenodd" clip-rule="evenodd" d="M7.83 2H17.169C20.57 2 22.49 3.929 22.5 7.33V16.67C22.5 20.07 20.57 22 17.169 22H7.83C4.429 22 2.5 20.07 2.5 16.67V7.33C2.5 3.929 4.429 2 7.83 2ZM12.549 17.86C12.98 17.86 13.339 17.54 13.379 17.11V6.92C13.419 6.61 13.27 6.299 13 6.13C12.719 5.96 12.379 5.96 12.11 6.13C11.839 6.299 11.69 6.61 11.719 6.92V17.11C11.77 17.54 12.129 17.86 12.549 17.86ZM17.15 17.86C17.57 17.86 17.929 17.54 17.98 17.11V13.83C18.009 13.509 17.86 13.21 17.589 13.04C17.32 12.87 16.98 12.87 16.7 13.04C16.429 13.21 16.28 13.509 16.32 13.83V17.11C16.36 17.54 16.719 17.86 17.15 17.86ZM8.719 17.11C8.679 17.54 8.32 17.86 7.889 17.86C7.459 17.86 7.099 17.54 7.06 17.11V10.2C7.03 9.889 7.179 9.58 7.45 9.41C7.719 9.24 8.06 9.24 8.33 9.41C8.599 9.58 8.75 9.889 8.719 10.2V17.11Z" fill="#4C5A6F"/>
</svg>
