<svg width="28" height="28" viewBox="0 0 28 28" fill="none" xmlns="http://www.w3.org/2000/svg">
<path fill-rule="evenodd" clip-rule="evenodd" d="M19.3881 4.18182C20.851 4.18182 22.2582 4.76001 23.2935 5.79746C24.3299 6.83273 24.9092 8.2291 24.9092 9.69092V18.3091C24.9092 21.3527 22.4328 23.8182 19.3881 23.8182H8.61097C5.56625 23.8182 3.09097 21.3527 3.09097 18.3091V9.69092C3.09097 6.64728 5.55534 4.18182 8.61097 4.18182H19.3881ZM21.1237 11.3164L21.211 11.2291C21.4717 10.9127 21.4717 10.4546 21.199 10.1382C21.0473 9.97564 20.839 9.87637 20.6219 9.85455C20.3928 9.84255 20.1746 9.92001 20.0099 10.0727L15.091 14C14.4582 14.5247 13.5517 14.5247 12.9092 14L8.00006 10.0727C7.66079 9.82182 7.1917 9.85455 6.90915 10.1491C6.61461 10.4436 6.58188 10.9127 6.8317 11.24L6.97461 11.3818L11.9382 15.2546C12.5492 15.7346 13.2899 15.9964 14.0655 15.9964C14.839 15.9964 15.5928 15.7346 16.2026 15.2546L21.1237 11.3164Z" fill="#4C5A6F"/>
</svg>
