<svg width="25" height="24" viewBox="0 0 25 24" fill="none" xmlns="http://www.w3.org/2000/svg">
<path fill-rule="evenodd" clip-rule="evenodd" d="M2.95159 4H20.3644C20.7491 4.00043 21.1179 4.15163 21.3899 4.42041C21.662 4.6892 21.815 5.05363 21.8154 5.43375V11.7649C21.4118 11.6512 20.9859 11.5904 20.5457 11.5904C18.7697 11.5904 17.2267 12.58 16.4417 14.0362H15.2851C15.0927 14.0362 14.9081 14.1117 14.7721 14.2462C14.636 14.3806 14.5596 14.563 14.5596 14.7531C14.5596 14.9432 14.636 15.1256 14.7721 15.26C14.9081 15.3944 15.0927 15.47 15.2851 15.47H15.952C15.9113 15.7169 15.8901 15.9705 15.8901 16.229C15.8901 16.9846 16.0745 17.7051 16.4053 18.3375H2.95159C2.56688 18.337 2.19806 18.1858 1.92602 17.917C1.65399 17.6483 1.50097 17.2838 1.50053 16.9037V8.38805L1.50027 8.38308C1.50013 8.38127 1.5 8.37946 1.5 8.37763C1.5 8.3758 1.50013 8.37399 1.50027 8.37218L1.50053 8.36722V5.43375C1.50097 5.05363 1.65399 4.6892 1.92602 4.42041C2.19806 4.15163 2.56688 4.00043 2.95159 4ZM2.95159 5.43375V7.66076H20.3645L20.3644 5.43375H2.95159ZM7.42533 14.7951C7.42533 14.3293 7.80431 13.9517 8.27181 13.9517H12.5042C12.9717 13.9517 13.3507 14.3293 13.3507 14.7951C13.3507 15.2609 12.9717 15.6385 12.5042 15.6385H8.27181C7.80431 15.6385 7.42533 15.2609 7.42533 14.7951ZM17.2445 16.3855C17.2445 14.3885 18.8679 12.7711 20.8723 12.7711C22.8766 12.7711 24.5 14.3885 24.5 16.3855C24.5 17.0632 24.3095 17.7048 23.974 18.247C23.3482 19.2952 22.1964 20 20.8723 20C19.5481 20 18.3963 19.2952 17.7706 18.247C17.435 17.7048 17.2445 17.0632 17.2445 16.3855ZM20.8179 17.7771L22.7496 15.997C23.0217 15.7349 23.0398 15.3102 22.7859 15.0391C22.532 14.7681 22.0966 14.75 21.8245 15.003L20.3735 16.3404L19.9381 15.9066C19.6751 15.6446 19.2398 15.6446 18.9768 15.9066C18.7138 16.1687 18.7138 16.6024 18.9768 16.8645L19.8746 17.759C20.0107 17.8946 20.183 17.9578 20.3553 17.9578C20.5186 17.9578 20.6909 17.8946 20.8179 17.7771Z" fill="#4C5A6F"/>
</svg>
