<svg width="16" height="16" viewBox="0 0 16 16" fill="none" xmlns="http://www.w3.org/2000/svg">
<path d="M13.274 10.3402H10.254C10.0772 10.3402 9.9076 10.4104 9.78258 10.5354C9.65756 10.6604 9.58732 10.83 9.58732 11.0068C9.58732 11.1836 9.65756 11.3532 9.78258 11.4782C9.9076 11.6033 10.0772 11.6735 10.254 11.6735H11.854C11.1186 12.442 10.1703 12.973 9.13076 13.1984C8.09127 13.4238 7.00812 13.3332 6.0205 12.9383C5.03288 12.5434 4.1859 11.8622 3.58838 10.9823C2.99086 10.1023 2.6701 9.06381 2.66732 8.00016C2.66732 7.82335 2.59708 7.65378 2.47206 7.52876C2.34703 7.40373 2.17746 7.3335 2.00065 7.3335C1.82384 7.3335 1.65427 7.40373 1.52925 7.52876C1.40422 7.65378 1.33398 7.82335 1.33398 8.00016C1.33751 9.30203 1.72213 10.5744 2.44039 11.6602C3.15864 12.746 4.17909 13.5977 5.37581 14.1103C6.57253 14.6229 7.89314 14.7739 9.17466 14.5446C10.4562 14.3153 11.6425 13.7159 12.5873 12.8202V14.0002C12.5873 14.177 12.6576 14.3465 12.7826 14.4716C12.9076 14.5966 13.0772 14.6668 13.254 14.6668C13.4308 14.6668 13.6004 14.5966 13.7254 14.4716C13.8504 14.3465 13.9207 14.177 13.9207 14.0002V11.0002C13.919 10.8279 13.8508 10.663 13.7302 10.54C13.6097 10.4169 13.4462 10.3453 13.274 10.3402ZM8.00065 1.3335C6.29157 1.33837 4.64964 1.99944 3.41398 3.18016V2.00016C3.41398 1.82335 3.34375 1.65378 3.21872 1.52876C3.0937 1.40373 2.92413 1.3335 2.74732 1.3335C2.57051 1.3335 2.40094 1.40373 2.27591 1.52876C2.15089 1.65378 2.08065 1.82335 2.08065 2.00016V5.00016C2.08065 5.17697 2.15089 5.34654 2.27591 5.47157C2.40094 5.59659 2.57051 5.66683 2.74732 5.66683H5.74732C5.92413 5.66683 6.0937 5.59659 6.21872 5.47157C6.34375 5.34654 6.41398 5.17697 6.41398 5.00016C6.41398 4.82335 6.34375 4.65378 6.21872 4.52876C6.0937 4.40373 5.92413 4.3335 5.74732 4.3335H4.14732C4.88229 3.56541 5.83004 3.0345 6.86892 2.8089C7.90779 2.58331 8.99038 2.67333 9.97772 3.0674C10.9651 3.46148 11.8121 4.14164 12.4101 5.02057C13.0082 5.89949 13.3299 6.93709 13.334 8.00016C13.334 8.17697 13.4042 8.34654 13.5292 8.47157C13.6543 8.59659 13.8238 8.66683 14.0007 8.66683C14.1775 8.66683 14.347 8.59659 14.4721 8.47157C14.5971 8.34654 14.6673 8.17697 14.6673 8.00016C14.6673 7.12468 14.4949 6.25778 14.1598 5.44894C13.8248 4.6401 13.3338 3.90517 12.7147 3.28612C12.0956 2.66706 11.3607 2.176 10.5519 1.84097C9.74304 1.50593 8.87613 1.3335 8.00065 1.3335Z" fill="#8976BF"/>
</svg>
