<svg width="18" height="18" viewBox="0 0 18 18" fill="none" xmlns="http://www.w3.org/2000/svg">
<path d="M9 2.25C7.66498 2.25 6.35993 2.64588 5.2499 3.38758C4.13987 4.12928 3.27471 5.18348 2.76382 6.41689C2.25292 7.65029 2.11925 9.00749 2.3797 10.3169C2.64015 11.6262 3.28303 12.829 4.22703 13.773C5.17104 14.717 6.37377 15.3598 7.68314 15.6203C8.99251 15.8807 10.3497 15.7471 11.5831 15.2362C12.8165 14.7253 13.8707 13.8601 14.6124 12.7501C15.3541 11.6401 15.75 10.335 15.75 9C15.7479 7.21042 15.0361 5.49474 13.7707 4.22931C12.5053 2.96389 10.7896 2.25207 9 2.25V2.25ZM11.444 10.7098C11.4923 10.758 11.5307 10.8152 11.5568 10.8782C11.583 10.9413 11.5965 11.0088 11.5965 11.077C11.5965 11.1453 11.5831 11.2128 11.557 11.2759C11.5309 11.3389 11.4927 11.3962 11.4444 11.4444C11.3962 11.4927 11.3389 11.5309 11.2759 11.557C11.2128 11.5831 11.1453 11.5965 11.077 11.5965C11.0088 11.5965 10.9413 11.583 10.8783 11.5568C10.8152 11.5306 10.758 11.4923 10.7098 11.444L9 9.73422L7.29019 11.444C7.19279 11.5412 7.06079 11.5958 6.92319 11.5957C6.7856 11.5956 6.65365 11.5409 6.55636 11.4436C6.45906 11.3463 6.40437 11.2144 6.40429 11.0768C6.40422 10.9392 6.45877 10.8072 6.55597 10.7098L8.26578 9L6.55597 7.29019C6.45877 7.19279 6.40422 7.06079 6.40429 6.92319C6.40437 6.78559 6.45906 6.65365 6.55636 6.55635C6.65365 6.45906 6.7856 6.40436 6.92319 6.40429C7.06079 6.40422 7.19279 6.45877 7.29019 6.55596L9 8.26577L10.7098 6.55596C10.8072 6.45877 10.9392 6.40422 11.0768 6.40429C11.2144 6.40436 11.3463 6.45906 11.4436 6.55635C11.5409 6.65365 11.5956 6.78559 11.5957 6.92319C11.5958 7.06079 11.5412 7.19279 11.444 7.29019L9.73423 9L11.444 10.7098Z" fill="#A8B3C6"/>
</svg>
