<svg width="24" height="24" viewBox="0 0 24 24" fill="none" xmlns="http://www.w3.org/2000/svg">
<path fill-rule="evenodd" clip-rule="evenodd" d="M11.7666 1C6.11203 1 1.52808 5.58396 1.52808 11.2386C1.52808 16.8932 6.11203 21.4771 11.7666 21.4771C14.0242 21.4771 16.1112 20.7464 17.8039 19.5086L20.6596 22.3569C21.1484 22.8445 21.9398 22.8434 22.4274 22.3546C22.9149 21.8659 22.9139 21.0744 22.4251 20.5869L19.6286 17.7977C21.1123 16.0212 22.0052 13.7341 22.0052 11.2386C22.0052 5.58396 17.4212 1 11.7666 1ZM4.02808 11.2386C4.02808 6.96467 7.49275 3.5 11.7666 3.5C16.0405 3.5 19.5052 6.96467 19.5052 11.2386C19.5052 15.5124 16.0405 18.9771 11.7666 18.9771C7.49275 18.9771 4.02808 15.5124 4.02808 11.2386Z" fill="#8976BF"/>
</svg>
