<svg width="24" height="25" viewBox="0 0 24 25" fill="none" xmlns="http://www.w3.org/2000/svg">
<path fill-rule="evenodd" clip-rule="evenodd" d="M6.884 5.61612C6.39584 5.12796 5.60439 5.12796 5.11623 5.61612C4.62807 6.10427 4.62807 6.89573 5.11623 7.38388L10.6194 12.8871L5.11612 18.3904C4.62796 18.8786 4.62796 19.67 5.11612 20.1582C5.60427 20.6463 6.39573 20.6463 6.88388 20.1582L12.3872 14.6549L17.8904 20.1581C18.3786 20.6462 19.17 20.6462 19.6582 20.1581C20.1463 19.6699 20.1463 18.8785 19.6582 18.3903L14.155 12.8871L19.6581 7.38399C20.1462 6.89584 20.1462 6.10438 19.6581 5.61622C19.1699 5.12807 18.3785 5.12807 17.8903 5.61622L12.3872 11.1193L6.884 5.61612Z" fill="#505361"/>
</svg>
